<?xml version="1.0" encoding="UTF-8"?>
<svg version="1.1" xmlns="http://www.w3.org/2000/svg" width="677" height="233">
<path d="M0 0 C1.23157837 0.00616333 1.23157837 0.00616333 2.48803711 0.01245117 C3.37942383 0.01438477 4.27081055 0.01631836 5.18920898 0.01831055 C6.1218457 0.03055664 7.05448242 0.04280273 8.01538086 0.05541992 C9.42013672 0.05638672 9.42013672 0.05638672 10.85327148 0.05737305 C17.81268862 0.10272768 17.81268862 0.10272768 18.95288086 1.24291992 C19.02601652 3.77341394 19.04535613 6.27596829 19.01538086 8.80541992 C19.01086914 9.51633789 19.00635742 10.22725586 19.00170898 10.9597168 C18.9898895 12.72082005 18.97195349 14.48188028 18.95288086 16.24291992 C19.73667618 16.21328156 20.5204715 16.18364319 21.32801819 16.15310669 C41.53609525 15.40828592 61.7162272 15.08088106 81.9375 15.11254883 C85.73222122 15.11840972 89.52687421 15.11484034 93.32159328 15.10897636 C96.28368155 15.10538589 99.24575314 15.10649949 102.20784187 15.10910416 C103.61093212 15.10976937 105.01402389 15.10895923 106.41711235 15.1066246 C108.34366708 15.10410609 110.27022722 15.10862018 112.19677734 15.11352539 C113.28828598 15.11432098 114.37979462 15.11511658 115.50437927 15.11593628 C117.95288086 15.24291992 117.95288086 15.24291992 118.95288086 16.24291992 C119.06263108 18.17438795 119.10199307 20.1098873 119.11401367 22.04443359 C119.12362122 23.28629929 119.13322876 24.52816498 119.14312744 25.80766296 C119.14797666 27.17540301 119.15225518 28.54314518 119.15600586 29.91088867 C119.16175689 31.30756127 119.16751463 32.70423383 119.17327881 34.10090637 C119.18380155 37.03569914 119.18963496 39.97046444 119.19311523 42.90527344 C119.19858395 46.65681032 119.22257123 50.40798129 119.25108719 54.1594038 C119.2697658 57.04798926 119.27492206 59.93648782 119.27645111 62.82512856 C119.27946954 64.20735982 119.28747069 65.58958985 119.30063629 66.9717617 C119.31779393 68.91257866 119.31395775 70.85354633 119.30932617 72.79443359 C119.31479462 74.44870613 119.31479462 74.44870613 119.32037354 76.13639832 C118.88068967 79.85317283 118.02851427 82.12343539 115.95288086 85.24291992 C111.43249472 88.36268126 107.265917 88.66274603 101.92797852 88.58349609 C101.14681671 88.58393417 100.36565491 88.58437225 99.56082153 88.58482361 C96.9959353 88.58274469 94.43171446 88.55945663 91.86694336 88.53588867 C90.08190264 88.53028952 88.29685729 88.52602093 86.5118103 88.52302551 C81.82638699 88.5116019 77.14124515 88.48215619 72.45593262 88.44891357 C67.66979784 88.41815905 62.88361734 88.40450869 58.09741211 88.3894043 C48.71577841 88.35728403 39.33435309 88.30611782 29.95288086 88.24291992 C29.45788086 94.18291992 29.45788086 94.18291992 28.95288086 100.24291992 C29.94037827 100.24069931 30.92787567 100.2384787 31.94529724 100.2361908 C41.23087115 100.2159591 50.51644061 100.20094765 59.80203152 100.19110775 C64.57636366 100.18587899 69.35067807 100.17878148 74.125 100.16748047 C78.72854348 100.15665133 83.33206985 100.15064303 87.93562508 100.14804268 C89.69597709 100.14618848 91.45632812 100.14256796 93.2166729 100.13718987 C95.67360363 100.12997906 98.13046281 100.128929 100.58740234 100.12939453 C101.69007195 100.12400162 101.69007195 100.12400162 102.8150177 100.11849976 C107.8388287 100.12886776 107.8388287 100.12886776 108.95288086 101.24291992 C109.02514588 103.09579494 109.03669306 104.9512587 109.01538086 106.80541992 C109.00635742 107.81733398 108.99733398 108.82924805 108.98803711 109.87182617 C108.97643555 110.65428711 108.96483398 111.43674805 108.95288086 112.24291992 C107.31319336 112.45948242 107.31319336 112.45948242 105.64038086 112.68041992 C102.02165099 113.12580097 102.02165099 113.12580097 98.95288086 114.24291992 C98.86006836 116.06823242 98.86006836 116.06823242 98.76538086 117.93041992 C98.33357248 121.2215 97.8838694 122.34120896 95.89038086 125.18041992 C91.92696746 127.96324209 89.80137939 128.24291992 84.95288086 128.24291992 C81.25498514 126.68158618 78.90426133 124.75540477 76.95288086 121.24291992 C76.26538086 117.49291992 76.26538086 117.49291992 75.95288086 114.24291992 C74.96288086 114.24291992 73.97288086 114.24291992 72.95288086 114.24291992 C72.95288086 113.58291992 72.95288086 112.92291992 72.95288086 112.24291992 C64.70288086 112.24291992 56.45288086 112.24291992 47.95288086 112.24291992 C48.28288086 112.90291992 48.61288086 113.56291992 48.95288086 114.24291992 C49.36596027 118.89006329 48.84734927 121.54997747 45.95288086 125.24291992 C43.23863565 127.3703013 41.42895316 128.17201554 38.01538086 128.68041992 C34.11757998 128.12359122 32.01298435 126.67709315 28.95288086 124.24291992 C26.95288086 121.24291992 26.95288086 121.24291992 26.45288086 118.18041992 C26.22494632 115.1293662 26.22494632 115.1293662 23.95288086 113.24291992 C22.98350586 113.26354492 22.01413086 113.28416992 21.01538086 113.30541992 C17.95288086 113.24291992 17.95288086 113.24291992 16.01538086 112.11791992 C14.44793113 109.35183216 15.42576328 107.34746073 15.95288086 104.24291992 C15.99508694 101.82662184 15.99400965 99.40923658 15.95288086 96.99291992 C15.84267678 90.46332809 15.84267678 90.46332809 16.95288086 88.24291992 C16.23100586 88.20166992 15.50913086 88.16041992 14.76538086 88.11791992 C11.69893947 87.16391593 9.995307 86.02446421 8.00039673 83.50091553 C5.51089158 78.13460858 6.35947681 71.59742659 6.46459961 65.78198242 C6.4739339 64.26599293 6.48104711 62.74998828 6.48603821 61.23397827 C6.50506003 57.25846155 6.55411733 53.28386921 6.60955811 49.30871582 C6.66085582 45.24654645 6.68357456 41.18422661 6.70874023 37.12182617 C6.76224246 29.1617682 6.8474948 21.2024593 6.95288086 13.24291992 C6.24260742 13.25452148 5.53233398 13.26612305 4.80053711 13.27807617 C3.88143555 13.28709961 2.96233398 13.29612305 2.01538086 13.30541992 C1.09885742 13.31702148 0.18233398 13.32862305 -0.76196289 13.34057617 C-3.04711914 13.24291992 -3.04711914 13.24291992 -4.04711914 12.24291992 C-4.17166774 10.60061628 -4.22280438 8.95239716 -4.23461914 7.30541992 C-4.24879883 6.40952148 -4.26297852 5.51362305 -4.27758789 4.59057617 C-3.97418692 1.50000023 -3.14537644 0.37324383 0 0 Z M18.95288086 28.24291992 C18.95288086 30.88291992 18.95288086 33.52291992 18.95288086 36.24291992 C21.59288086 36.24291992 24.23288086 36.24291992 26.95288086 36.24291992 C26.62288086 35.58291992 26.29288086 34.92291992 25.95288086 34.24291992 C26.2340015 32.23491537 26.56356052 30.23277941 26.95288086 28.24291992 C24.31288086 28.24291992 21.67288086 28.24291992 18.95288086 28.24291992 Z M38.95288086 28.24291992 C38.95288086 30.88291992 38.95288086 33.52291992 38.95288086 36.24291992 C41.26288086 36.24291992 43.57288086 36.24291992 45.95288086 36.24291992 C45.95288086 33.60291992 45.95288086 30.96291992 45.95288086 28.24291992 C43.64288086 28.24291992 41.33288086 28.24291992 38.95288086 28.24291992 Z M58.95288086 28.24291992 C58.95288086 30.88291992 58.95288086 33.52291992 58.95288086 36.24291992 C61.26288086 36.24291992 63.57288086 36.24291992 65.95288086 36.24291992 C65.29288086 35.58291992 64.63288086 34.92291992 63.95288086 34.24291992 C64.61288086 33.91291992 65.27288086 33.58291992 65.95288086 33.24291992 C66.60843205 30.71558757 66.60843205 30.71558757 66.95288086 28.24291992 C64.31288086 28.24291992 61.67288086 28.24291992 58.95288086 28.24291992 Z M78.95288086 28.24291992 C78.95288086 30.88291992 78.95288086 33.52291992 78.95288086 36.24291992 C81.59288086 36.24291992 84.23288086 36.24291992 86.95288086 36.24291992 C86.95288086 33.60291992 86.95288086 30.96291992 86.95288086 28.24291992 C84.31288086 28.24291992 81.67288086 28.24291992 78.95288086 28.24291992 Z M98.95288086 28.24291992 C98.95288086 30.88291992 98.95288086 33.52291992 98.95288086 36.24291992 C101.59288086 36.24291992 104.23288086 36.24291992 106.95288086 36.24291992 C106.62288086 35.58291992 106.29288086 34.92291992 105.95288086 34.24291992 C106.2340015 32.23491537 106.56356052 30.23277941 106.95288086 28.24291992 C104.31288086 28.24291992 101.67288086 28.24291992 98.95288086 28.24291992 Z M18.95288086 48.24291992 C18.95288086 50.88291992 18.95288086 53.52291992 18.95288086 56.24291992 C21.59288086 56.24291992 24.23288086 56.24291992 26.95288086 56.24291992 C26.29288086 55.58291992 25.63288086 54.92291992 24.95288086 54.24291992 C25.61288086 52.26291992 26.27288086 50.28291992 26.95288086 48.24291992 C24.31288086 48.24291992 21.67288086 48.24291992 18.95288086 48.24291992 Z M38.95288086 48.24291992 C38.95288086 50.88291992 38.95288086 53.52291992 38.95288086 56.24291992 C41.26288086 56.24291992 43.57288086 56.24291992 45.95288086 56.24291992 C45.95288086 53.60291992 45.95288086 50.96291992 45.95288086 48.24291992 C43.64288086 48.24291992 41.33288086 48.24291992 38.95288086 48.24291992 Z M58.95288086 48.24291992 C58.95288086 50.88291992 58.95288086 53.52291992 58.95288086 56.24291992 C61.59288086 56.24291992 64.23288086 56.24291992 66.95288086 56.24291992 C65.96288086 55.58291992 64.97288086 54.92291992 63.95288086 54.24291992 C64.32788086 51.80541992 64.32788086 51.80541992 64.95288086 49.24291992 C65.61288086 48.91291992 66.27288086 48.58291992 66.95288086 48.24291992 C64.31288086 48.24291992 61.67288086 48.24291992 58.95288086 48.24291992 Z M78.95288086 48.24291992 C78.95288086 50.88291992 78.95288086 53.52291992 78.95288086 56.24291992 C81.59288086 56.24291992 84.23288086 56.24291992 86.95288086 56.24291992 C86.95288086 53.60291992 86.95288086 50.96291992 86.95288086 48.24291992 C84.31288086 48.24291992 81.67288086 48.24291992 78.95288086 48.24291992 Z M98.95288086 48.24291992 C98.95288086 50.88291992 98.95288086 53.52291992 98.95288086 56.24291992 C101.59288086 56.24291992 104.23288086 56.24291992 106.95288086 56.24291992 C106.29288086 55.58291992 105.63288086 54.92291992 104.95288086 54.24291992 C105.61288086 52.26291992 106.27288086 50.28291992 106.95288086 48.24291992 C104.31288086 48.24291992 101.67288086 48.24291992 98.95288086 48.24291992 Z M18.95288086 68.24291992 C18.95288086 70.55291992 18.95288086 72.86291992 18.95288086 75.24291992 C21.26288086 75.24291992 23.57288086 75.24291992 25.95288086 75.24291992 C26.28288086 72.93291992 26.61288086 70.62291992 26.95288086 68.24291992 C24.31288086 68.24291992 21.67288086 68.24291992 18.95288086 68.24291992 Z M38.95288086 68.24291992 C38.95288086 70.55291992 38.95288086 72.86291992 38.95288086 75.24291992 C41.26288086 75.24291992 43.57288086 75.24291992 45.95288086 75.24291992 C45.95288086 72.93291992 45.95288086 70.62291992 45.95288086 68.24291992 C43.64288086 68.24291992 41.33288086 68.24291992 38.95288086 68.24291992 Z M58.95288086 68.24291992 C58.95288086 70.55291992 58.95288086 72.86291992 58.95288086 75.24291992 C61.26288086 75.24291992 63.57288086 75.24291992 65.95288086 75.24291992 C65.95288086 72.93291992 65.95288086 70.62291992 65.95288086 68.24291992 C63.64288086 68.24291992 61.33288086 68.24291992 58.95288086 68.24291992 Z M78.95288086 68.24291992 C78.95288086 70.55291992 78.95288086 72.86291992 78.95288086 75.24291992 C81.59288086 75.24291992 84.23288086 75.24291992 86.95288086 75.24291992 C86.95288086 72.93291992 86.95288086 70.62291992 86.95288086 68.24291992 C84.31288086 68.24291992 81.67288086 68.24291992 78.95288086 68.24291992 Z M98.95288086 68.24291992 C98.95288086 70.55291992 98.95288086 72.86291992 98.95288086 75.24291992 C101.59288086 75.24291992 104.23288086 75.24291992 106.95288086 75.24291992 C106.95288086 72.93291992 106.95288086 70.62291992 106.95288086 68.24291992 C104.31288086 68.24291992 101.67288086 68.24291992 98.95288086 68.24291992 Z M97.95288086 112.24291992 C98.95288086 114.24291992 98.95288086 114.24291992 98.95288086 114.24291992 Z " fill="#330263" transform="translate(164.047119140625,54.757080078125)"/>
<path d="M0 0 C2.64 0 5.28 0 8 0 C8 7.92 8 15.84 8 24 C9.98 23.01 11.96 22.02 14 21 C19.48261518 20.05199738 24.54184237 20.28981914 29.4375 23.0625 C34.1075882 26.42151836 36.19346516 30.58039548 38 36 C38.78043644 43.0878982 37.8368729 48.9280555 34 55 C29.39476889 59.49010033 25.47461395 61.28824232 19.0625 61.3125 C18.04285156 61.32925781 17.02320313 61.34601563 15.97265625 61.36328125 C12.63129895 60.95494192 10.73659348 59.91007169 8 58 C7.67 58.99 7.34 59.98 7 61 C4.69 60.67 2.38 60.34 0 60 C0 40.2 0 20.4 0 0 Z M10.23046875 31.31640625 C7.01889219 35.71065862 6.80227239 40.51704294 7.5 45.75 C9.3991303 49.86478231 11.13108223 51.63566137 15 54 C19.11642043 54.91834037 22.19184417 54.47435233 25.875 52.3125 C29.07698285 48.82798925 29.87819026 46.31554524 30.3125 41.625 C29.86695469 36.45667441 28.76218796 32.51743963 24.75 29.0625 C19.16591524 26.90501271 14.74163623 27.04712442 10.23046875 31.31640625 Z " fill="#320264" transform="translate(371,88)"/>
<path d="M0 0 C0.66 0.33 1.32 0.66 2 1 C2 5.29 2 9.58 2 14 C4.64 14 7.28 14 10 14 C10 16.31 10 18.62 10 21 C7.36 21 4.72 21 2 21 C2 31.23 2 41.46 2 52 C-0.64 52 -3.28 52 -6 52 C-6 41.77 -6 31.54 -6 21 C-16.8519275 20.02279326 -16.8519275 20.02279326 -21.125 22.75 C-24.32312203 26.58774644 -25.24775778 29.43273331 -25.4140625 34.421875 C-25.47207031 35.95908203 -25.47207031 35.95908203 -25.53125 37.52734375 C-25.57765625 39.12255859 -25.57765625 39.12255859 -25.625 40.75 C-25.66367187 41.82894531 -25.70234375 42.90789062 -25.7421875 44.01953125 C-25.83634631 46.67951775 -25.92197387 49.3394994 -26 52 C-28.64 52 -31.28 52 -34 52 C-34 39.46 -34 26.92 -34 14 C-31.36 14 -28.72 14 -26 14 C-25.67 14.99 -25.34 15.98 -25 17 C-24.175 16.34 -23.35 15.68 -22.5 15 C-18.57670811 12.37519715 -15.64646908 12.63123261 -11 13 C-8.525 13.495 -8.525 13.495 -6 14 C-6 10.04 -6 6.08 -6 2 C-3 1 -3 1 0 2 C0 1.34 0 0.68 0 0 Z " fill="#351162" transform="translate(621,96)"/>
<path d="M0 0 C4.53663548 2.70831158 8.4703689 6.2253692 10.13671875 11.36328125 C10.21921875 11.92015625 10.30171875 12.47703125 10.38671875 13.05078125 C7.9142726 14.21832526 6.02033947 15.06941715 3.26171875 14.98828125 C1.38671875 14.05078125 1.38671875 14.05078125 0.01171875 11.67578125 C-2.12191939 8.22913503 -3.78881426 7.34965683 -7.61328125 6.05078125 C-10.50692151 5.80680766 -12.88319475 6.04318231 -15.61328125 7.05078125 C-20.86295742 11.84396384 -22.3762596 16.49968908 -22.83203125 23.328125 C-23.04224772 31.53532648 -22.46005378 37.42477589 -18.11328125 44.48828125 C-15.54196976 47.16673071 -13.31974711 47.06009979 -9.67578125 47.17578125 C-5.53307399 47.18418459 -5.53307399 47.18418459 -1.61328125 46.05078125 C-0.17180826 43.77477127 0.53117297 41.61741859 1.38671875 39.05078125 C5.10271066 38.84991682 6.1588032 38.89883755 9.38671875 41.05078125 C8.96680508 45.8098028 6.85084829 48.90321707 3.38671875 52.05078125 C-2.60298545 55.71794709 -8.71318035 55.85931504 -15.61328125 55.05078125 C-21.82902866 53.30746645 -26.16844392 49.42730306 -29.61328125 44.05078125 C-34.27785259 35.37291834 -33.90535753 23.93628976 -31.48828125 14.61328125 C-29.38137021 8.67832059 -26.28237836 3.69945322 -20.875 0.359375 C-14.49608887 -2.19982887 -6.49235314 -2.35820899 0 0 Z " fill="#330A61" transform="translate(529.61328125,93.94921875)"/>
<path d="M0 0 C0.78375 0.495 1.5675 0.99 2.375 1.5 C2.705 0.84 3.035 0.18 3.375 -0.5 C5.685 -0.5 7.995 -0.5 10.375 -0.5 C11.96145357 2.67290713 11.49578213 6.08825384 11.47265625 9.5703125 C11.4712413 10.36654022 11.46982635 11.16276794 11.46836853 11.98312378 C11.46276345 14.5304538 11.45021014 17.07769647 11.4375 19.625 C11.43248565 21.35025915 11.42792263 23.07551967 11.42382812 24.80078125 C11.41279237 29.03388791 11.39552436 33.26692914 11.375 37.5 C8.735 37.5 6.095 37.5 3.375 37.5 C3.045 36.84 2.715 36.18 2.375 35.5 C1.776875 35.995 1.17875 36.49 0.5625 37 C-5.0662245 39.64881153 -11.07463265 39.31804236 -16.9375 37.4375 C-22.7987417 33.21195366 -26.33033214 28.75014004 -27.625 21.5 C-28.12735497 15.97409528 -27.46761607 11.27821319 -24.625 6.5 C-17.67281834 -1.01704642 -9.8730465 -4.08539855 0 0 Z M-17.625 10.5 C-20.19490075 15.41633187 -19.96496373 20.22753402 -18.625 25.5 C-16.77488198 28.67163088 -15.73192062 30.12131663 -12.25 31.3125 C-10.950625 31.4053125 -10.950625 31.4053125 -9.625 31.5 C-8.635 31.62375 -7.645 31.7475 -6.625 31.875 C-2.47543144 31.35630393 -1.19675527 29.71469409 1.375 26.5 C4.13600765 21.98198748 3.47887433 17.4855308 2.375 12.5 C1.0903043 9.62472868 0.12648258 8.06361193 -2.375 6.1875 C-9.07225914 4.14111526 -12.89056214 5.43525253 -17.625 10.5 Z " fill="#371367" transform="translate(438.625,110.5)"/>
<path d="M0 0 C1.546875 -0.02513672 1.546875 -0.02513672 3.125 -0.05078125 C6.31011968 0.35168632 7.65733538 1.17819737 10 3.3125 C10.66 2.3225 11.32 1.3325 12 0.3125 C14.31 0.6425 16.62 0.9725 19 1.3125 C19 13.8525 19 26.3925 19 39.3125 C15.37 39.3125 11.74 39.3125 8 39.3125 C6.515 39.8075 6.515 39.8075 5 40.3125 C-1.66065319 41.06572411 -6.81996026 40.80428591 -12.34375 36.80859375 C-16.67882216 32.89271489 -18.69846469 28.7221685 -19.203125 23.015625 C-19.32374235 16.70331704 -19.04124658 10.66042691 -14.60546875 5.77734375 C-9.86254932 1.65880865 -6.2452769 0.02341979 0 0 Z M-9.8125 12.375 C-11.56909764 16.72026785 -11.66542904 20.69146502 -11 25.3125 C-9.27122536 28.89810666 -8.06112733 30.69816312 -4.625 32.6875 C0.66487949 33.98210418 0.66487949 33.98210418 5.6796875 32.296875 C8.40880673 30.1292492 9.88736537 28.65040388 11 25.3125 C11.53029448 20.26166241 11.54762715 16.40775429 9.25 11.8125 C6.19149905 8.41416561 4.58489705 7.48110607 0.0625 7 C-4.45187533 7.46065054 -6.84183796 8.99459147 -9.8125 12.375 Z " fill="#320961" transform="translate(561,108.6875)"/>
<path d="M0 0 C4.72477331 1.66242024 7.25163159 3.82655167 10 8 C11.19420814 11.49263316 11.11432763 14.847921 11.09765625 18.515625 C11.09443359 19.76601562 11.09121094 21.01640625 11.08789062 22.3046875 C11.07532227 24.25761719 11.07532227 24.25761719 11.0625 26.25 C11.05798828 27.56742188 11.05347656 28.88484375 11.04882812 30.2421875 C11.03704316 33.49483741 11.02059011 36.74739584 11 40 C8.03 39.67 5.06 39.34 2 39 C1.97494385 38.16227051 1.9498877 37.32454102 1.92407227 36.46142578 C1.82899643 33.35647744 1.72975975 30.25169819 1.62768555 27.14697266 C1.56301749 25.14105193 1.50316894 23.13497772 1.44335938 21.12890625 C1.40146484 19.87207031 1.35957031 18.61523438 1.31640625 17.3203125 C1.27974854 16.15773926 1.24309082 14.99516602 1.20532227 13.79736328 C1.18178341 11.0464499 1.18178341 11.0464499 0 9 C-2.97946071 8.14181862 -5.90591049 7.85369454 -9 8 C-11.55151968 9.84985177 -12.60976715 11.2195343 -14 14 C-14.15378852 15.95774069 -14.24971463 17.92017352 -14.31640625 19.8828125 C-14.35830078 21.04941406 -14.40019531 22.21601563 -14.44335938 23.41796875 C-14.50233398 25.25294922 -14.50233398 25.25294922 -14.5625 27.125 C-14.60568359 28.35605469 -14.64886719 29.58710938 -14.69335938 30.85546875 C-14.79968704 33.90352853 -14.90171781 36.9516719 -15 40 C-17.97 39.67 -20.94 39.34 -24 39 C-24 26.46 -24 13.92 -24 1 C-20 1 -16 1 -12 1 C-8.30506957 -0.84746521 -4.04115396 -0.3419438 0 0 Z " fill="#320861" transform="translate(480,109)"/>
<path d="M0 0 C2.64 0.33 5.28 0.66 8 1 C8.01458252 1.83249268 8.02916504 2.66498535 8.04418945 3.52270508 C8.1052863 6.61489653 8.17944556 9.70642082 8.26245117 12.7980957 C8.31201319 14.7929063 8.34651133 16.78807257 8.38085938 18.78320312 C8.41630859 20.03681641 8.45175781 21.29042969 8.48828125 22.58203125 C8.51446533 23.73936768 8.54064941 24.8967041 8.56762695 26.08911133 C8.76270437 28.99500299 8.76270437 28.99500299 10.41088867 30.8762207 C13.34660824 32.95228726 16.56639064 32.51001311 20 32 C23.10112641 30.24269503 23.66527352 27.47228222 24.58984375 24.1418457 C25.38294938 20.00022921 25.16276348 15.82391294 25.0625 11.625 C25.02823776 9.82559781 24.9980585 8.02611158 24.97265625 6.2265625 C24.94570679 5.04441162 24.94570679 5.04441162 24.91821289 3.83837891 C25 2 25 2 26 1 C29.5 0.875 29.5 0.875 33 1 C34 2 34 2 34.11352539 5.51000977 C34.11336626 7.07048422 34.10767142 8.63096393 34.09765625 10.19140625 C34.0962413 11.01124496 34.09482635 11.83108368 34.09336853 12.67576599 C34.08775289 15.30471382 34.07519779 17.93357773 34.0625 20.5625 C34.05748701 22.34049357 34.05292376 24.11848846 34.04882812 25.89648438 C34.03777839 30.26435545 34.02050331 34.63216348 34 39 C31.36 39 28.72 39 26 39 C25.67 38.34 25.34 37.68 25 37 C24.38125 37.495 23.7625 37.99 23.125 38.5 C18.22365715 40.85264457 13.08005858 41.06683593 7.90234375 39.2734375 C3.93399429 37.20079638 1.88257894 34.98649512 0 31 C-0.34057617 27.58666992 -0.34057617 27.58666992 -0.29296875 23.73046875 C-0.28872391 23.04946609 -0.28447906 22.36846344 -0.28010559 21.66682434 C-0.2634061 19.50663541 -0.22577312 17.34740358 -0.1875 15.1875 C-0.17244174 13.71681042 -0.15875534 12.24610611 -0.14648438 10.77539062 C-0.11353214 7.18328643 -0.06181173 3.59173674 0 0 Z " fill="#380E66" transform="translate(304,109)"/>
<path d="M0 0 C1 1 1 1 1.0625 4.5625 C1.041875 5.696875 1.02125 6.83125 1 8 C-0.216875 7.938125 -1.43375 7.87625 -2.6875 7.8125 C-6.5985386 7.81942219 -8.90672835 8.45259982 -12 11 C-14.02531667 14.21441967 -14.29400913 16.87895273 -14.4140625 20.640625 C-14.47207031 22.24550781 -14.47207031 22.24550781 -14.53125 23.8828125 C-14.57765625 25.54957031 -14.57765625 25.54957031 -14.625 27.25 C-14.68300781 28.93996094 -14.68300781 28.93996094 -14.7421875 30.6640625 C-14.83637336 33.44254548 -14.92199586 36.22102334 -15 39 C-17.64 39 -20.28 39 -23 39 C-23 26.46 -23 13.92 -23 1 C-20.36 1 -17.72 1 -15 1 C-14.67 1.66 -14.34 2.32 -14 3 C-13.360625 2.505 -12.72125 2.01 -12.0625 1.5 C-8.0191151 -0.48043342 -4.43947758 -0.47696867 0 0 Z " fill="#360667" transform="translate(368,109)"/>
<path d="M0 0 C0.53625 0.433125 1.0725 0.86625 1.625 1.3125 C1.625 -0.3375 1.625 -1.9875 1.625 -3.6875 C2.615 -3.6875 3.605 -3.6875 4.625 -3.6875 C4.955 3.2425 5.285 10.1725 5.625 17.3125 C5.955 15.6625 6.285 14.0125 6.625 12.3125 C6.955 12.3125 7.285 12.3125 7.625 12.3125 C7.625 18.9125 7.625 25.5125 7.625 32.3125 C4.985 32.3125 2.345 32.3125 -0.375 32.3125 C-0.705 31.6525 -1.035 30.9925 -1.375 30.3125 C-1.973125 30.8075 -2.57125 31.3025 -3.1875 31.8125 C-7.79689477 33.98162695 -12.35004021 33.91145032 -17.375 33.3125 C-18.365 32.6525 -19.355 31.9925 -20.375 31.3125 C-18.725 31.3125 -17.075 31.3125 -15.375 31.3125 C-15.375 30.3225 -15.375 29.3325 -15.375 28.3125 C-14.715 28.3125 -14.055 28.3125 -13.375 28.3125 C-13.375 27.3225 -13.375 26.3325 -13.375 25.3125 C-12.50875 25.415625 -11.6425 25.51875 -10.75 25.625 C-6.13743413 25.19791057 -4.68205541 23.46207658 -1.375 20.3125 C-1.045 20.6425 -0.715 20.9725 -0.375 21.3125 C1.81053838 13.49446649 1.81053838 13.49446649 0.0625 5.8125 C-1.97093642 2.53081548 -3.67319915 0.68055684 -7.375 -0.6875 C-10.71751875 -1.36778827 -13.96425063 -1.95342283 -17.375 -1.6875 C-19.1843823 -0.29679985 -19.1843823 -0.29679985 -20.375 1.3125 C-21.035 0.9825 -21.695 0.6525 -22.375 0.3125 C-22.375 -0.3475 -22.375 -1.0075 -22.375 -1.6875 C-14.68171412 -6.81635725 -7.20003997 -5.11581787 0 0 Z " fill="#350966" transform="translate(442.375,115.6875)"/>
<path d="M0 0 C0.33 0 0.66 0 1 0 C1.33 6.93 1.66 13.86 2 21 C3.32 19.68 4.64 18.36 6 17 C11.26550334 15.24483222 17.09603473 14.92784064 22.359375 16.87109375 C28.26714337 20.25806622 30.85880875 24.57642625 33 31 C33.80111239 38.27567642 32.46019684 43.60481477 29 50 C27.68 49.67 26.36 49.34 25 49 C25.474375 48.4225 25.94875 47.845 26.4375 47.25 C29.12212454 43.38414067 29.17983038 39.69954257 29.25 35.0625 C29.27578125 34.04285156 29.3015625 33.02320313 29.328125 31.97265625 C28.95571781 28.59882446 27.85060492 26.80025745 26 24 C26 23.34 26 22.68 26 22 C24.35 21.67 22.7 21.34 21 21 C21 20.34 21 19.68 21 19 C14.0231933 18.55308712 9.66375307 18.44136948 4 23 C2.68 23.33 1.36 23.66 0 24 C0 16.08 0 8.16 0 0 Z M22 22 C25.92518417 26.33780461 27.78805873 31.17161511 28 37 C27.7397104 39.34260643 27.42579972 41.6817571 27 44 C26.01 44.33 25.02 44.66 24 45 C23.67 45.99 23.34 46.98 23 48 C22.34 47.34 21.68 46.68 21 46 C21.495 45.154375 21.99 44.30875 22.5 43.4375 C24.70183909 38.39161875 24.67905643 34.29631978 22.75 29.1875 C21.28665852 26.05381765 21.28665852 26.05381765 19.25 24.5625 C14.88495554 23.47123889 11.43776138 23.33127378 7.3125 25.25 C3.69612284 29.55055662 2.50521298 34.65186896 1 40 C0.67 40 0.34 40 0 40 C-0.53993763 33.38576402 0.00814605 29.39439723 4 24 C8.7271526 19.81309341 16.20488423 19.82084489 22 22 Z " fill="#371362" transform="translate(376,93)"/>
<path d="M0 0 C1.86352539 -0.35644531 1.86352539 -0.35644531 4.09765625 -0.328125 C4.89880859 -0.32296875 5.69996094 -0.3178125 6.52539062 -0.3125 C7.36263672 -0.291875 8.19988281 -0.27125 9.0625 -0.25 C9.90361328 -0.24484375 10.74472656 -0.2396875 11.61132812 -0.234375 C17.84600765 -0.15399235 17.84600765 -0.15399235 19 1 C19.23481693 3.18292774 19.41363323 5.37203174 19.5625 7.5625 C19.68818359 9.35880859 19.68818359 9.35880859 19.81640625 11.19140625 C19.87699219 12.11824219 19.93757813 13.04507813 20 14 C20.67611328 13.99476318 21.35222656 13.98952637 22.04882812 13.98413086 C40.58429745 13.8642633 59.11110345 14.0591762 77.64404297 14.37332153 C80.16534102 14.41597736 82.68666329 14.45722544 85.20800781 14.49703979 C88.80413279 14.55463583 92.40010299 14.61820261 95.99609375 14.68359375 C97.61172462 14.70867004 97.61172462 14.70867004 99.25999451 14.73425293 C105.23768158 14.85131815 111.06873378 15.24039321 117 16 C117 16.33 117 16.66 117 17 C84.33 17 51.66 17 18 17 C18 12.05 18 7.1 18 2 C11.4 2.33 4.8 2.66 -2 3 C-1.34 2.01 -0.68 1.02 0 0 Z " fill="#3E1870" transform="translate(163,56)"/>
<path d="M0 0 C1.81242052 -0.02687279 3.62495233 -0.04633715 5.4375 -0.0625 C6.44683594 -0.07410156 7.45617187 -0.08570312 8.49609375 -0.09765625 C11 0 11 0 12 1 C12.10450379 2.94221067 12.1385536 4.88824339 12.14526367 6.83325195 C12.15164352 8.08157303 12.15802338 9.3298941 12.16459656 10.61604309 C12.16612545 11.99012209 12.1672393 13.3642016 12.16796875 14.73828125 C12.17118033 16.13974543 12.17454432 17.54120927 12.17805481 18.94267273 C12.18405364 21.88586199 12.18589403 24.82902185 12.18530273 27.7722168 C12.18520128 31.54180469 12.19883307 35.31120352 12.21607494 39.08074665 C12.22720234 41.97782759 12.22922169 44.874863 12.22869301 47.77196312 C12.2298728 49.16141598 12.23429452 50.55087004 12.24202538 51.9403019 C12.25183595 53.88636471 12.2476802 55.83248273 12.24291992 57.77856445 C12.24434494 58.88585403 12.24576996 59.99314362 12.24723816 61.13398743 C12.0037615 63.9563963 11.46325607 65.60611479 10 68 C9.67 68 9.34 68 9 68 C9 46.22 9 24.44 9 2 C6.03 2 3.06 2 0 2 C0 1.34 0 0.68 0 0 Z " fill="#360D67" transform="translate(271,70)"/>
<path d="M0 0 C2 0.66666667 4 1.33333333 6 2 C6 4.31 6 6.62 6 9 C6.99 8.67 7.98 8.34 9 8 C7.125 13.75 7.125 13.75 6 16 C5.98389829 17.59678322 6.03464373 19.1945399 6.12109375 20.7890625 C6.16943359 21.73007813 6.21777344 22.67109375 6.26757812 23.640625 C6.32365234 24.62546875 6.37972656 25.6103125 6.4375 26.625 C6.48970703 27.61757812 6.54191406 28.61015625 6.59570312 29.6328125 C6.72558949 32.08884568 6.86056164 34.5444936 7 37 C3.535 37.495 3.535 37.495 0 38 C0 25.46 0 12.92 0 0 Z " fill="#2F065E" transform="translate(587,110)"/>
<path d="M0 0 C1 1 1 1 1.0625 4.5625 C1.041875 5.696875 1.02125 6.83125 1 8 C-0.216875 7.938125 -1.43375 7.87625 -2.6875 7.8125 C-6.5985386 7.81942219 -8.90672835 8.45259982 -12 11 C-14.02531667 14.21441967 -14.29400913 16.87895273 -14.4140625 20.640625 C-14.47207031 22.24550781 -14.47207031 22.24550781 -14.53125 23.8828125 C-14.57765625 25.54957031 -14.57765625 25.54957031 -14.625 27.25 C-14.68300781 28.93996094 -14.68300781 28.93996094 -14.7421875 30.6640625 C-14.83637336 33.44254548 -14.92199586 36.22102334 -15 39 C-17.64 39 -20.28 39 -23 39 C-22.67 38.34 -22.34 37.68 -22 37 C-20.35 37.33 -18.7 37.66 -17 38 C-17.00523682 37.44650879 -17.01047363 36.89301758 -17.01586914 36.32275391 C-17.16528344 18.14716685 -17.16528344 18.14716685 -16.375 12.1875 C-15.82738691 7.96412783 -16.52825152 4.98237824 -18 1 C-17.01 1 -16.02 1 -15 1 C-14.67 1.66 -14.34 2.32 -14 3 C-13.360625 2.505 -12.72125 2.01 -12.0625 1.5 C-8.0191151 -0.48043342 -4.43947758 -0.47696867 0 0 Z " fill="#250C4F" transform="translate(368,109)"/>
<path d="M0 0 C4.75987701 1.67477154 7.25290374 3.79400823 10 8 C10.36230469 11.3215332 10.36230469 11.3215332 10.171875 15.05078125 C10.13009125 16.03899117 10.13009125 16.03899117 10.08746338 17.04716492 C9.994602 19.13708864 9.87277381 21.22414159 9.75 23.3125 C9.68167131 24.734935 9.61524479 26.15746272 9.55078125 27.58007812 C9.38918994 31.05473073 9.20160342 34.52741282 9 38 C8.67 38 8.34 38 8 38 C7.98541748 37.20827393 7.97083496 36.41654785 7.95581055 35.60083008 C7.88121644 32.00423457 7.78459167 28.40855557 7.6875 24.8125 C7.66494141 23.56662109 7.64238281 22.32074219 7.61914062 21.03710938 C7.58369141 19.83505859 7.54824219 18.63300781 7.51171875 17.39453125 C7.48553467 16.28956299 7.45935059 15.18459473 7.43237305 14.04614258 C6.80531616 9.6284188 5.20587231 6.97139714 1.75 4.1875 C-1.71556431 2.69100632 -4.25951903 2.65365917 -8 3 C-8.99 3.66 -9.98 4.32 -11 5 C-10.01 5.33 -9.02 5.66 -8 6 C-11.3 6.66 -14.6 7.32 -18 8 C-18 6.35 -18 4.7 -18 3 C-18.99 3 -19.98 3 -21 3 C-21 14.22 -21 25.44 -21 37 C-21.33 37 -21.66 37 -22 37 C-22.90183848 29.49167036 -23.21294475 22.05927059 -23.25 14.5 C-23.270625 13.4171875 -23.29125 12.334375 -23.3125 11.21875 C-23.31765625 10.1875 -23.3228125 9.15625 -23.328125 8.09375 C-23.3374707 7.16240234 -23.34681641 6.23105469 -23.35644531 5.27148438 C-23.23881836 4.52189453 -23.12119141 3.77230469 -23 3 C-19.71805371 0.8120358 -18.77524063 0.81123797 -15 1 C-9.9279943 1 -5.37825794 -0.45508336 0 0 Z " fill="#3A146A" transform="translate(480,109)"/>
<path d="M0 0 C0.53625 0.433125 1.0725 0.86625 1.625 1.3125 C1.625 -0.3375 1.625 -1.9875 1.625 -3.6875 C2.615 -3.6875 3.605 -3.6875 4.625 -3.6875 C4.625 7.2025 4.625 18.0925 4.625 29.3125 C3.14 28.8175 3.14 28.8175 1.625 28.3125 C1.625 27.3225 1.625 26.3325 1.625 25.3125 C0.965 25.3125 0.305 25.3125 -0.375 25.3125 C-0.230625 24.136875 -0.08625 22.96125 0.0625 21.75 C0.14757812 21.01652344 0.23265625 20.28304687 0.3203125 19.52734375 C0.625 17.3125 0.625 17.3125 1.4375 13.8125 C1.69041422 9.09143448 0.31750009 6.13550494 -2.375 2.3125 C-6.06178897 -1.04898406 -10.27787066 -1.29908649 -15.0703125 -1.8671875 C-17.46717458 -1.90267401 -17.46717458 -1.90267401 -19.1796875 -0.1953125 C-19.57414062 0.30226563 -19.96859375 0.79984375 -20.375 1.3125 C-21.035 0.9825 -21.695 0.6525 -22.375 0.3125 C-22.375 -0.3475 -22.375 -1.0075 -22.375 -1.6875 C-14.68171412 -6.81635725 -7.20003997 -5.11581787 0 0 Z " fill="#320263" transform="translate(442.375,115.6875)"/>
<path d="M0 0 C0.99 0 1.98 0 3 0 C3 1.65 3 3.3 3 5 C4.32 4.67 5.64 4.34 7 4 C6.84152588 4.70213623 6.68305176 5.40427246 6.51977539 6.12768555 C5.98109408 9.10447541 5.79208274 11.93483803 5.68359375 14.95703125 C5.64169922 16.06884766 5.59980469 17.18066406 5.55664062 18.32617188 C5.51732422 19.47666016 5.47800781 20.62714844 5.4375 21.8125 C5.39431641 22.98232422 5.35113281 24.15214844 5.30664062 25.35742188 C5.20081721 28.23817031 5.09873175 31.11900123 5 34 C4.01 34.495 4.01 34.495 3 35 C2.01 34.67 1.02 34.34 0 34 C0 22.78 0 11.56 0 0 Z " fill="#340765" transform="translate(459,112)"/>
<path d="M0 0 C0.33 0 0.66 0 1 0 C1.33 17.82 1.66 35.64 2 54 C2.33 54 2.66 54 3 54 C3.33 52.35 3.66 50.7 4 49 C4.99 49 5.98 49 7 49 C8.051875 50.2065625 8.051875 50.2065625 9.125 51.4375 C12.94059426 54.83835575 16.03723738 54.88106669 21 55 C21 55.33 21 55.66 21 56 C19.22925083 56.02705729 17.45838289 56.04642195 15.6875 56.0625 C14.20830078 56.07990234 14.20830078 56.07990234 12.69921875 56.09765625 C10 56 10 56 7 55 C6.67 55.66 6.34 56.32 6 57 C3.69 56.67 1.38 56.34 -1 56 C-1.02526563 48.18547248 -1.04283105 40.37095542 -1.05493164 32.55639648 C-1.05997383 29.89558519 -1.06680736 27.23477668 -1.07543945 24.57397461 C-1.08751009 20.75894484 -1.09322929 16.94395156 -1.09765625 13.12890625 C-1.10281754 11.93100967 -1.10797882 10.7331131 -1.11329651 9.49891663 C-1.11337204 8.3978508 -1.11344757 7.29678497 -1.11352539 6.16235352 C-1.115746 5.18750504 -1.11796661 4.21265656 -1.12025452 3.20826721 C-1 1 -1 1 0 0 Z " fill="#3C1966" transform="translate(372,92)"/>
<path d="M0 0 C1.32 0.33 2.64 0.66 4 1 C3.01 1.495 3.01 1.495 2 2 C2 13.22 2 24.44 2 36 C3.65 36 5.3 36 7 36 C7.01981934 35.26885986 7.03963867 34.53771973 7.06005859 33.78442383 C7.15552914 30.46009731 7.26511966 27.13638014 7.375 23.8125 C7.42140625 22.08676758 7.42140625 22.08676758 7.46875 20.32617188 C7.50742187 19.21435547 7.54609375 18.10253906 7.5859375 16.95703125 C7.6173584 15.93585205 7.6487793 14.91467285 7.68115234 13.86254883 C8.01238932 10.88877126 8.66198331 8.67037139 10 6 C14.71920144 3.67815289 19.98128293 3.71314947 25 5 C25.33 6.65 25.66 8.3 26 10 C25.29875 9.505 24.5975 9.01 23.875 8.5 C20.52678113 6.7531032 18.7241837 6.44533434 15 7 C12.69724444 8.8670991 11.32176129 10.35647741 10 13 C9.84621148 14.95774069 9.75028537 16.92017352 9.68359375 18.8828125 C9.64169922 20.04941406 9.59980469 21.21601563 9.55664062 22.41796875 C9.49766602 24.25294922 9.49766602 24.25294922 9.4375 26.125 C9.39431641 27.35605469 9.35113281 28.58710938 9.30664062 29.85546875 C9.20031296 32.90352853 9.09828219 35.9516719 9 39 C6.03 38.67 3.06 38.34 0 38 C0 25.46 0 12.92 0 0 Z " fill="#260A52" transform="translate(456,110)"/>
<path d="M0 0 C0.33 0 0.66 0 1 0 C2.23222026 6.79280123 2.20594903 13.56071584 2.28125 20.44921875 C2.30937474 22.42026577 2.33750465 24.39131273 2.36594391 26.36235523 C2.42424186 30.50257338 2.47457345 34.64289574 2.52606201 38.78320312 C2.5688887 42.20494542 2.61351434 45.62664054 2.66296387 49.04829407 C2.69958528 51.60909824 2.73202954 54.16996624 2.7598877 56.73088074 C2.77660522 57.88920914 2.79332275 59.04753754 2.81054688 60.2409668 C2.82307495 61.25909958 2.83560303 62.27723236 2.84851074 63.32621765 C2.9831248 65.70215299 3.32351588 67.72722735 4 70 C2.68 69.34 1.36 68.68 0 68 C0 45.56 0 23.12 0 0 Z " fill="#371661" transform="translate(171,68)"/>
<path d="M0 0 C7.38461538 -0.36923077 7.38461538 -0.36923077 10.5 1.5 C10.995 1.995 11.49 2.49 12 3 C12.66 2.01 13.32 1.02 14 0 C16.31 0.33 18.62 0.66 21 1 C21 12.88 21 24.76 21 37 C20.01 37.495 20.01 37.495 19 38 C17.68808003 31.04785719 17.88941942 24.11555097 17.9375 17.0625 C17.94201172 15.80630859 17.94652344 14.55011719 17.95117188 13.25585938 C17.96290319 10.17052337 17.979319 7.08528684 18 4 C17.34 3.67 16.68 3.34 16 3 C16 4.65 16 6.3 16 8 C15.01 8 14.02 8 13 8 C12.46375 7.401875 11.9275 6.80375 11.375 6.1875 C8.03062833 3.10715767 4.31534749 2.21714929 0 1 C0 0.67 0 0.34 0 0 Z " fill="#3C1668" transform="translate(559,109)"/>
<path d="M0 0 C0.33 0 0.66 0 1 0 C1.06058594 0.62648438 1.12117187 1.25296875 1.18359375 1.8984375 C1.26738281 2.71570313 1.35117188 3.53296875 1.4375 4.375 C1.55931641 5.59316406 1.55931641 5.59316406 1.68359375 6.8359375 C1.89090114 9.04272805 1.89090114 9.04272805 3 11 C1.35 11.33 -0.3 11.66 -2 12 C-2.33 13.32 -2.66 14.64 -3 16 C-3.66 16 -4.32 16 -5 16 C-5 16.66 -5 17.32 -5 18 C-3.35 17.67 -1.7 17.34 0 17 C1.26237731 19.52475462 1.09856404 21.31200466 1.0625 24.125 C1.05347656 25.03507812 1.04445312 25.94515625 1.03515625 26.8828125 C1.02355469 27.58148438 1.01195312 28.28015625 1 29 C0.67 29 0.34 29 0 29 C-0.33 26.03 -0.66 23.06 -1 20 C-4.3 20 -7.6 20 -11 20 C-11.36923077 14.46153846 -11.36923077 14.46153846 -9.5 12.125 C-9.005 11.75375 -8.51 11.3825 -8 11 C-8.99 10.01 -9.98 9.02 -11 8 C-6.545 7.505 -6.545 7.505 -2 7 C-1.34 4.69 -0.68 2.38 0 0 Z " fill="#370768" transform="translate(212,83)"/>
<path d="M0 0 C0.33 0 0.66 0 1 0 C1.33 5.61 1.66 11.22 2 17 C2.33 17 2.66 17 3 17 C4.03590199 22.05002222 4.10251672 26.87416389 4 32 C1.36 32 -1.28 32 -4 32 C-4 31.01 -4 30.02 -4 29 C-3.34 29 -2.68 29 -2 29 C-2 27.35 -2 25.7 -2 24 C-2.66 24 -3.32 24 -4 24 C-3.86722656 23.34515625 -3.73445313 22.6903125 -3.59765625 22.015625 C-2.39251824 15.78761249 -1.64485288 9.66725596 -1.24609375 3.3359375 C-1 1 -1 1 0 0 Z " fill="#2E0365" transform="translate(334,116)"/>
<path d="M0 0 C0.99 0.33 1.98 0.66 3 1 C3 10.57 3 20.14 3 30 C1.68 30 0.36 30 -1 30 C-1.0246985 26.04900072 -1.04285923 22.09803126 -1.05493164 18.14697266 C-1.06244036 16.14093449 -1.0751447 14.13491798 -1.08789062 12.12890625 C-1.09111328 10.87207031 -1.09433594 9.61523438 -1.09765625 8.3203125 C-1.10289307 7.15773926 -1.10812988 5.99516602 -1.11352539 4.79736328 C-1 2 -1 2 0 0 Z " fill="#340365" transform="translate(618,116)"/>
<path d="M0 0 C0.66 0.33 1.32 0.66 2 1 C2 4.63 2 8.26 2 12 C0.3603125 12.2165625 0.3603125 12.2165625 -1.3125 12.4375 C-4.93122987 12.88288104 -4.93122987 12.88288104 -8 14 C-8.33 13.34 -8.66 12.68 -9 12 C-10.64142963 10.9590934 -12.30712215 9.95495674 -14 9 C-12 9 -10 9 -8 9 C-8.33 8.01 -8.66 7.02 -9 6 C-9 5.01 -9 4.02 -9 3 C-4.545 2.505 -4.545 2.505 0 2 C0 1.34 0 0.68 0 0 Z " fill="#2C035A" transform="translate(271,155)"/>
<path d="M0 0 C0.99 0 1.98 0 3 0 C2.96519531 1.26714844 2.93039062 2.53429687 2.89453125 3.83984375 C2.86636763 5.53904911 2.83907025 7.23826898 2.8125 8.9375 C2.78736328 9.76830078 2.76222656 10.59910156 2.73632812 11.45507812 C2.66211274 17.81286288 3.2466204 24.4829394 7.30273438 29.6640625 C8.78986734 31.20913189 8.78986734 31.20913189 11 33 C9.02 33.495 9.02 33.495 7 34 C-0.6238669 25.96403219 -1.3347088 18.11244467 -1.203125 7.35546875 C-1.04306171 4.71134627 -0.7840941 2.51036578 0 0 Z " fill="#391764" transform="translate(498,110)"/>
<path d="M0 0 C3.875 1.75 3.875 1.75 5 4 C6.98 4.66 8.96 5.32 11 6 C11 13.92 11 21.84 11 30 C12.65 29.34 14.3 28.68 16 28 C16.66 28.66 17.32 29.32 18 30 C17.625 32.125 17.625 32.125 17 34 C16.67 33.34 16.34 32.68 16 32 C15.071875 32.061875 14.14375 32.12375 13.1875 32.1875 C10 32 10 32 8.0625 30.875 C6.49505027 28.10891224 7.47288242 26.1045408 8 23 C8.04220608 20.58370192 8.04112879 18.16631666 8 15.75 C7.88979592 9.22040816 7.88979592 9.22040816 9 7 C8.2575 6.9175 7.515 6.835 6.75 6.75 C3.45697405 5.85190201 2.14023212 4.61583926 0 2 C0 1.34 0 0.68 0 0 Z " fill="#2E0D5A" transform="translate(172,136)"/>
<path d="M0 0 C1.81242052 -0.02687279 3.62495233 -0.04633715 5.4375 -0.0625 C6.44683594 -0.07410156 7.45617187 -0.08570312 8.49609375 -0.09765625 C11 0 11 0 12 1 C12.10450379 2.94221067 12.1385536 4.88824339 12.14526367 6.83325195 C12.15164352 8.08157303 12.15802338 9.3298941 12.16459656 10.61604309 C12.16612545 11.99012209 12.1672393 13.3642016 12.16796875 14.73828125 C12.17118033 16.13974543 12.17454432 17.54120927 12.17805481 18.94267273 C12.18405364 21.88586199 12.18589403 24.82902185 12.18530273 27.7722168 C12.18520128 31.54180469 12.19883307 35.31120352 12.21607494 39.08074665 C12.22720234 41.97782759 12.22922169 44.874863 12.22869301 47.77196312 C12.2298728 49.16141598 12.23429452 50.55087004 12.24202538 51.9403019 C12.25183595 53.88636471 12.2476802 55.83248273 12.24291992 57.77856445 C12.24434494 58.88585403 12.24576996 59.99314362 12.24723816 61.13398743 C12.0037615 63.9563963 11.46325607 65.60611479 10 68 C9.67 67.34 9.34 66.68 9 66 C9.33 65.01 9.66 64.02 10 63 C10.09259332 61.30903138 10.12791516 59.61464375 10.12939453 57.92114258 C10.13254669 56.88609085 10.13569885 55.85103912 10.13894653 54.78462219 C10.1369223 53.66589218 10.13489807 52.54716217 10.1328125 51.39453125 C10.13376923 50.2413591 10.13472595 49.08818695 10.13571167 47.90007019 C10.13639282 45.45641017 10.13454307 43.01274835 10.13037109 40.5690918 C10.12504625 36.84484738 10.13030573 33.12072491 10.13671875 29.39648438 C10.13605748 27.02083307 10.13477531 24.64518184 10.1328125 22.26953125 C10.13584885 20.60661797 10.13584885 20.60661797 10.13894653 18.91011047 C10.12175062 13.17763699 9.86216788 7.66916049 9 2 C6.03 2 3.06 2 0 2 C0 1.34 0 0.68 0 0 Z " fill="#291151" transform="translate(271,70)"/>
<path d="M0 0 C0.99 0.33 1.98 0.66 3 1 C3 4.63 3 8.26 3 12 C2.01 12.33 1.02 12.66 0 13 C0 10.03 0 7.06 0 4 C-2.31 3.67 -4.62 3.34 -7 3 C-7 5.31 -7 7.62 -7 10 C-5.35 10 -3.7 10 -2 10 C-1.67 10.99 -1.34 11.98 -1 13 C-3.64 13 -6.28 13 -9 13 C-10.47075246 8.58774263 -11.36884358 5.51718381 -10 1 C-7.98177083 1.03255208 -5.96354167 1.06510417 -3.9453125 1.09765625 C-1.91814596 1.12649242 -1.91814596 1.12649242 0 0 Z " fill="#371068" transform="translate(270,120)"/>
<path d="M0 0 C1.65 0 3.3 0 5 0 C5.99 2.64 6.98 5.28 8 8 C7.01 8.33 6.02 8.66 5 9 C5 6.69 5 4.38 5 2 C4.01 2 3.02 2 2 2 C2 13.55 2 25.1 2 37 C1.34 36.67 0.68 36.34 0 36 C0 24.12 0 12.24 0 0 Z " fill="#3A1964" transform="translate(345,110)"/>
<path d="M0 0 C1.051875 -0.00386719 1.051875 -0.00386719 2.125 -0.0078125 C4 0.125 4 0.125 6 1.125 C6.02687279 2.93742052 6.04633715 4.74995233 6.0625 6.5625 C6.07410156 7.57183594 6.08570313 8.58117187 6.09765625 9.62109375 C6 12.125 6 12.125 5 13.125 C3.14712498 13.19726502 1.29166122 13.2088122 -0.5625 13.1875 C-1.57441406 13.17847656 -2.58632812 13.16945313 -3.62890625 13.16015625 C-4.41136719 13.14855469 -5.19382813 13.13695313 -6 13.125 C-7.01054862 10.09335415 -7.0265912 8.60749249 -6.6875 5.5 C-6.60886719 4.70335938 -6.53023437 3.90671875 -6.44921875 3.0859375 C-6.22685547 2.11527344 -6.22685547 2.11527344 -6 1.125 C-3.75487738 0.00243869 -2.48543351 -0.00913762 0 0 Z M-4 3.125 C-4 5.765 -4 8.405 -4 11.125 C-1.36 11.125 1.28 11.125 4 11.125 C3.67 10.465 3.34 9.805 3 9.125 C3.28112064 7.11699544 3.61067967 5.11485949 4 3.125 C1.36 3.125 -1.28 3.125 -4 3.125 Z " fill="#381363" transform="translate(187,79.875)"/>
<path d="M0 0 C0.7425 0.0825 1.485 0.165 2.25 0.25 C1.84872233 4.66405442 0.04660605 7.209012 -2.59375 10.6015625 C-4.83773911 13.80076319 -4.79698195 16.22313839 -4.3125 19.9375 C-4.21066406 20.74574219 -4.10882812 21.55398437 -4.00390625 22.38671875 C-3.92011719 23.00160156 -3.83632813 23.61648437 -3.75 24.25 C-4.74 24.25 -5.73 24.25 -6.75 24.25 C-7.94346168 17.23302047 -7.70379967 12.74835926 -4.75 6.25 C-4.75 5.92 -4.75 5.59 -4.75 5.25 C-5.41 4.92 -6.07 4.59 -6.75 4.25 C-3.42692308 0.31153846 -3.42692308 0.31153846 0 0 Z " fill="#320563" transform="translate(551.75,111.75)"/>
<path d="M0 0 C6.86643577 0.04517392 13.54802328 1.08148337 20.3125 2.1875 C20.3125 2.5175 20.3125 2.8475 20.3125 3.1875 C1.8325 3.1875 -16.6475 3.1875 -35.6875 3.1875 C-35.6875 2.8575 -35.6875 2.5275 -35.6875 2.1875 C-34.78394775 2.16244385 -33.88039551 2.1373877 -32.94946289 2.11157227 C-29.6078572 2.01662683 -26.26643748 1.91738379 -22.92504883 1.81518555 C-21.4768576 1.7717837 -20.02861346 1.73011256 -18.58032227 1.69018555 C-16.50260441 1.63260938 -14.42515427 1.56887972 -12.34765625 1.50390625 C-11.09605713 1.46724854 -9.84445801 1.43059082 -8.55493164 1.39282227 C-5.27615075 1.15804536 -3.5068365 0.02559735 0 0 Z " fill="#10012B" transform="translate(230.6875,139.8125)"/>
<path d="M0 0 C0.66 0.99 1.32 1.98 2 3 C1.71125 3.680625 1.4225 4.36125 1.125 5.0625 C-0.97231765 10.53882942 -0.81404018 16.05338217 1.4375 21.4375 C1.953125 22.283125 2.46875 23.12875 3 24 C3.33 24.99 3.66 25.98 4 27 C4.66 27.33 5.32 27.66 6 28 C2 28 2 28 0.4375 26.9375 C-4.13387833 20.77607703 -5.04633817 14.5226207 -4 7 C-2.92565447 4.30715991 -1.69548324 2.38427331 0 0 Z " fill="#320164" transform="translate(418,116)"/>
<path d="M0 0 C0.33 0.99 0.66 1.98 1 3 C-0.32 3.99 -1.64 4.98 -3 6 C-1.35 6.33 0.3 6.66 2 7 C-0.45125104 9.56267155 -1.84377978 10.92219488 -5.49609375 11.16796875 C-6.46675781 11.17441406 -7.43742187 11.18085938 -8.4375 11.1875 C-9.40558594 11.20167969 -10.37367188 11.21585938 -11.37109375 11.23046875 C-14 11 -14 11 -17 9 C-15.35 9 -13.7 9 -12 9 C-12 8.01 -12 7.02 -12 6 C-11.34 6 -10.68 6 -10 6 C-10 5.01 -10 4.02 -10 3 C-9.0925 3.061875 -8.185 3.12375 -7.25 3.1875 C-3.71017358 2.98327924 -2.55068845 2.35448165 0 0 Z " fill="#320F5D" transform="translate(439,138)"/>
<path d="M0 0 C1 1 1 1 1.0625 4.5625 C1.041875 5.696875 1.02125 6.83125 1 8 C-0.216875 7.938125 -1.43375 7.87625 -2.6875 7.8125 C-6.59926493 7.80557652 -8.83681332 8.58109254 -12 11 C-12.66 11.66 -13.32 12.32 -14 13 C-13.67372714 9.98197607 -13.38918764 8.40308719 -11.25 6.1875 C-8.62847443 4.80391706 -6.92325122 4.75639573 -4 5 C-3.67 4.34 -3.34 3.68 -3 3 C-2.67 2.67 -2.34 2.34 -2 2 C-7.80782636 3.26467106 -7.80782636 3.26467106 -13 6 C-13.66 5.34 -14.32 4.68 -15 4 C-10.10398402 -0.01724388 -6.3024391 -0.80936586 0 0 Z " fill="#381463" transform="translate(368,109)"/>
<path d="M0 0 C0.51242249 0.16076523 1.02484497 0.32153046 1.55279541 0.48716736 C4.78055889 1.16357279 7.8566437 1.16551122 11.15527344 1.20532227 C12.22416557 1.22017166 12.22416557 1.22017166 13.31465149 1.23532104 C15.66285922 1.26683139 18.01108715 1.29165191 20.359375 1.31640625 C21.99034136 1.33698483 23.62130249 1.35798154 25.2522583 1.37937927 C29.53969077 1.43450665 33.82717063 1.48395699 38.11468506 1.53222656 C42.49186406 1.58250983 46.86897447 1.63816024 51.24609375 1.69335938 C59.83067112 1.80082675 68.41530598 1.90229696 77 2 C77 2.33 77 2.66 77 3 C51.59 3 26.18 3 0 3 C0 2.01 0 1.02 0 0 Z " fill="#3D176F" transform="translate(195,155)"/>
<path d="M0 0 C0.91007813 0.00902344 1.82015625 0.01804687 2.7578125 0.02734375 C3.45648438 0.03894531 4.15515625 0.05054687 4.875 0.0625 C4.90186553 2.04159398 4.92133375 4.02078971 4.9375 6 C4.94910156 7.10214844 4.96070313 8.20429687 4.97265625 9.33984375 C4.875 12.0625 4.875 12.0625 3.875 13.0625 C2.02212498 13.13476502 0.16666122 13.1463122 -1.6875 13.125 C-2.69941406 13.11597656 -3.71132812 13.10695313 -4.75390625 13.09765625 C-5.53636719 13.08605469 -6.31882813 13.07445313 -7.125 13.0625 C-6.125 11.0625 -6.125 11.0625 -4.125 10.0625 C-3.465 9.711875 -2.805 9.36125 -2.125 9 C-0.125 8.0625 -0.125 8.0625 1.875 8.0625 C1.545 6.7425 1.215 5.4225 0.875 4.0625 C-1.765 3.7325 -4.405 3.4025 -7.125 3.0625 C-7.125 2.4025 -7.125 1.7425 -7.125 1.0625 C-4.60024538 -0.19987731 -2.81299534 -0.03606404 0 0 Z " fill="#340F5D" transform="translate(228.125,79.9375)"/>
<path d="M0 0 C0.33 0 0.66 0 1 0 C1 9.57 1 19.14 1 29 C1.99 28.67 2.98 28.34 4 28 C4.33 26.35 4.66 24.7 5 23 C5.99 23 6.98 23 8 23 C9.051875 24.2065625 9.051875 24.2065625 10.125 25.4375 C13.94059426 28.83835575 17.03723738 28.88106669 22 29 C22 29.33 22 29.66 22 30 C20.22925083 30.02705729 18.45838289 30.04642195 16.6875 30.0625 C15.70136719 30.07410156 14.71523438 30.08570313 13.69921875 30.09765625 C11 30 11 30 8 29 C7.67 29.66 7.34 30.32 7 31 C4.69 30.67 2.38 30.34 0 30 C0 20.1 0 10.2 0 0 Z " fill="#35155E" transform="translate(371,118)"/>
<path d="M0 0 C0.68707555 2.49064888 1 4.37886292 1 7 C-0.32 7.33 -1.64 7.66 -3 8 C-3 8.66 -3 9.32 -3 10 C-8.30898589 12.23536248 -13.32290814 12.63385006 -19 12 C-22.625 10.5 -22.625 10.5 -25 9 C-24.67 8.34 -24.34 7.68 -24 7 C-22.948125 7.24363281 -22.948125 7.24363281 -21.875 7.4921875 C-18.85697435 8.02526268 -16.06286663 8.13281344 -13 8.125 C-11.4840625 8.12886719 -11.4840625 8.12886719 -9.9375 8.1328125 C-7.18285256 8.00826727 -4.68161197 7.62110865 -2 7 C-1.34 4.69 -0.68 2.38 0 0 Z " fill="#310262" transform="translate(533,135)"/>
<path d="M0 0 C1.97909398 -0.02686553 3.95828971 -0.04633375 5.9375 -0.0625 C7.03964844 -0.07410156 8.14179688 -0.08570312 9.27734375 -0.09765625 C12 0 12 0 13 1 C13.0979057 2.49738124 13.12974864 3.99942892 13.125 5.5 C13.12757813 6.3146875 13.13015625 7.129375 13.1328125 7.96875 C13 10 13 10 12 11 C8.66381769 11.14257189 5.34024394 11.04228157 2 11 C1.34 7.37 0.68 3.74 0 0 Z M3 2 C3 4.64 3 7.28 3 10 C5.64 10 8.28 10 11 10 C10.67 9.34 10.34 8.68 10 8 C10.28112064 5.99199544 10.61067967 3.98985949 11 2 C8.36 2 5.72 2 3 2 Z " fill="#2F105B" transform="translate(260,81)"/>
<path d="M0 0 C0.99 0 1.98 0 3 0 C6.50928168 4.18414355 6.66919754 8.76419562 7 14 C7.66 14 8.32 14 9 14 C9 14.99 9 15.98 9 17 C11.31 17.33 13.62 17.66 16 18 C16 18.33 16 18.66 16 19 C8.8477349 18.75755034 8.8477349 18.75755034 5.0625 15.375 C2.84921833 11.75326635 2.25218605 9.20310083 2 5 C1.01 5 0.02 5 -1 5 C-1.33 4.01 -1.66 3.02 -2 2 C-1.34 2 -0.68 2 0 2 C0 1.34 0 0.68 0 0 Z " fill="#2F1155" transform="translate(238,164)"/>
<path d="M0 0 C1.37478516 0.01740234 1.37478516 0.01740234 2.77734375 0.03515625 C3.69644531 0.04417969 4.61554688 0.05320312 5.5625 0.0625 C6.27277344 0.07410156 6.98304688 0.08570312 7.71484375 0.09765625 C7.71484375 0.42765625 7.71484375 0.75765625 7.71484375 1.09765625 C4.74484375 1.09765625 1.77484375 1.09765625 -1.28515625 1.09765625 C-1.28515625 3.73765625 -1.28515625 6.37765625 -1.28515625 9.09765625 C-0.95515625 8.43765625 -0.62515625 7.77765625 -0.28515625 7.09765625 C2.36344802 6.50410011 5.00681697 6.35556356 7.71484375 6.09765625 C7.71484375 7.74765625 7.71484375 9.39765625 7.71484375 11.09765625 C4.08484375 11.09765625 0.45484375 11.09765625 -3.28515625 11.09765625 C-3.3828125 3.3828125 -3.3828125 3.3828125 -3.28515625 1.09765625 C-2.28515625 0.09765625 -2.28515625 0.09765625 0 0 Z " fill="#300D59" transform="translate(184.28515625,101.90234375)"/>
<path d="M0 0 C0.99 0.66 1.98 1.32 3 2 C1.35 2 -0.3 2 -2 2 C-1.67 2.66 -1.34 3.32 -1 4 C-0.58692059 8.64714337 -1.10553159 11.30705755 -4 15 C-7.66633999 17.87361783 -10.3736285 18.51404128 -15 18 C-15.66 17.34 -16.32 16.68 -17 16 C-16.31292969 15.80664062 -15.62585938 15.61328125 -14.91796875 15.4140625 C-13.56638672 15.02347656 -13.56638672 15.02347656 -12.1875 14.625 C-11.29417969 14.36976563 -10.40085938 14.11453125 -9.48046875 13.8515625 C-6.79532104 13.04733339 -6.79532104 13.04733339 -4 11 C-3.63637182 8.79274927 -3.63637182 8.79274927 -3.8125 6.375 C-3.83957031 5.55773437 -3.86664063 4.74046875 -3.89453125 3.8984375 C-3.92933594 3.27195313 -3.96414062 2.64546875 -4 2 C-2.68 1.34 -1.36 0.68 0 0 Z " fill="#290B50" transform="translate(214,165)"/>
<path d="M0 0 C1.051875 -0.02126953 1.051875 -0.02126953 2.125 -0.04296875 C4 0.1875 4 0.1875 6 2.1875 C6.1953125 4.5703125 6.1953125 4.5703125 6.125 7.3125 C6.10695312 8.22257812 6.08890625 9.13265625 6.0703125 10.0703125 C6.04710937 10.76898438 6.02390625 11.46765625 6 12.1875 C3.24921116 13.10442961 1.64051087 13.29636083 -1.1875 13.25 C-3.0746875 13.2190625 -3.0746875 13.2190625 -5 13.1875 C-4.67 12.5275 -4.34 11.8675 -4 11.1875 C-1.36 11.1875 1.28 11.1875 4 11.1875 C4 8.5475 4 5.9075 4 3.1875 C2.081875 3.249375 2.081875 3.249375 0.125 3.3125 C-2.0546875 3.3828125 -2.0546875 3.3828125 -4 3.1875 C-4.66 2.5275 -5.32 1.8675 -6 1.1875 C-3.77109005 0.07304502 -2.46944894 0.02269714 0 0 Z " fill="#3C1461" transform="translate(247,79.8125)"/>
<path d="M0 0 C0.33 1.65 0.66 3.3 1 5 C-0.2375 5.28875 -1.475 5.5775 -2.75 5.875 C-5.72448742 6.61334794 -8.333856 7.44474933 -11 9 C-11 8.01 -11 7.02 -11 6 C-11.66 5.67 -12.32 5.34 -13 5 C-4.738041 -0.74031891 -4.738041 -0.74031891 0 0 Z " fill="#2F0261" transform="translate(607,109)"/>
<path d="M0 0 C0.33 0 0.66 0 1 0 C1.33 8.58 1.66 17.16 2 26 C1.34 25.67 0.68 25.34 0 25 C-2.14443625 17.50074341 -3.62680451 7.25360902 0 0 Z " fill="#3C186E" transform="translate(505,109)"/>
<path d="M0 0 C2.64 0 5.28 0 8 0 C8 0.33 8 0.66 8 1 C5.69 1 3.38 1 1 1 C1 3.64 1 6.28 1 9 C1.33 8.34 1.66 7.68 2 7 C2.804375 6.87625 3.60875 6.7525 4.4375 6.625 C5.283125 6.41875 6.12875 6.2125 7 6 C7.66 4.68 8.32 3.36 9 2 C9.33 4.97 9.66 7.94 10 11 C6.37 11 2.74 11 -1 11 C-1.33 10.34 -1.66 9.68 -2 9 C-1.34 9 -0.68 9 0 9 C0 6.03 0 3.06 0 0 Z " fill="#2B0D5B" transform="translate(262,102)"/>
<path d="M0 0 C1.23157837 0.00616333 1.23157837 0.00616333 2.48803711 0.01245117 C3.37942383 0.01438477 4.27081055 0.01631836 5.18920898 0.01831055 C6.1218457 0.03055664 7.05448242 0.04280273 8.01538086 0.05541992 C9.42013672 0.05638672 9.42013672 0.05638672 10.85327148 0.05737305 C17.81268862 0.10272768 17.81268862 0.10272768 18.95288086 1.24291992 C19.02559827 3.59605547 19.03658954 5.95125661 19.01538086 8.30541992 C19.00635742 9.59577148 18.99733398 10.88612305 18.98803711 12.21557617 C18.97643555 13.21459961 18.96483398 14.21362305 18.95288086 15.24291992 C18.62288086 15.24291992 18.29288086 15.24291992 17.95288086 15.24291992 C17.45788086 8.80791992 17.45788086 8.80791992 16.95288086 2.24291992 C11.01288086 2.24291992 5.07288086 2.24291992 -1.04711914 2.24291992 C-1.04711914 2.90291992 -1.04711914 3.56291992 -1.04711914 4.24291992 C-1.63700015 7.19232499 -2.67541915 9.57758417 -4.04711914 12.24291992 C-4.10107392 10.6182815 -4.13989109 8.99313451 -4.17211914 7.36791992 C-4.19532227 6.46299805 -4.21852539 5.55807617 -4.24243164 4.62573242 C-3.98677328 1.50670037 -3.17214503 0.37642031 0 0 Z " fill="#350853" transform="translate(164.047119140625,54.757080078125)"/>
<path d="M0 0 C0.91007813 0.10183594 1.82015625 0.20367187 2.7578125 0.30859375 C3.45648438 0.39238281 4.15515625 0.47617188 4.875 0.5625 C4.215 3.5325 3.555 6.5025 2.875 9.5625 C2.545 9.5625 2.215 9.5625 1.875 9.5625 C1.875 7.2525 1.875 4.9425 1.875 2.5625 C-0.435 2.5625 -2.745 2.5625 -5.125 2.5625 C-5.125 5.2025 -5.125 7.8425 -5.125 10.5625 C-5.785 10.5625 -6.445 10.5625 -7.125 10.5625 C-7.125 7.2625 -7.125 3.9625 -7.125 0.5625 C-4.50184968 -0.74907516 -2.89466564 -0.33399988 0 0 Z " fill="#33125E" transform="translate(208.125,80.4375)"/>
<path d="M0 0 C7.38423029 -0.37546934 7.38423029 -0.37546934 10.5625 1.5625 C13.9653273 3.56929559 16.24390342 2.81013848 20 2 C20 3.98 20 5.96 20 8 C19.71125 7.360625 19.4225 6.72125 19.125 6.0625 C18.17176549 3.84793921 18.17176549 3.84793921 16 3 C16 4.65 16 6.3 16 8 C15.01 8 14.02 8 13 8 C12.46375 7.401875 11.9275 6.80375 11.375 6.1875 C8.03062833 3.10715767 4.31534749 2.21714929 0 1 C0 0.67 0 0.34 0 0 Z " fill="#411671" transform="translate(559,109)"/>
<path d="M0 0 C1.47906892 -0.02689216 2.95827483 -0.04634621 4.4375 -0.0625 C5.26121094 -0.07410156 6.08492187 -0.08570312 6.93359375 -0.09765625 C9 0 9 0 10 1 C10.23287008 2.68183948 10.41264166 4.3712416 10.5625 6.0625 C10.64628906 6.98160156 10.73007813 7.90070313 10.81640625 8.84765625 C10.87699219 9.55792969 10.93757812 10.26820312 11 11 C9.68 10.67 8.36 10.34 7 10 C7.33 9.34 7.66 8.68 8 8 C6.35 8 4.7 8 3 8 C3 7.67 3 7.34 3 7 C4.65 7 6.3 7 8 7 C8 5.02 8 3.04 8 1 C5.69 1 3.38 1 1 1 C1.33 3.31 1.66 5.62 2 8 C1.01 8 0.02 8 -1 8 C-1.92091738 5.42143135 -2.18506902 4.4056713 -1.0234375 1.859375 C-0.68570313 1.24578125 -0.34796875 0.6321875 0 0 Z " fill="#2A0B59" transform="translate(202,102)"/>
<path d="M0 0 C2.64 0 5.28 0 8 0 C8 9 8 18 8 27 C7.34 26.67 6.68 26.34 6 26 C5.67 19.07 5.34 12.14 5 5 C3.35 5 1.7 5 0 5 C0 3.35 0 1.7 0 0 Z " fill="#2A0F5C" transform="translate(371,88)"/>
<path d="M0 0 C0 3.63 0 7.26 0 11 C-1.64350079 7.71299843 -2.41321669 5.52069985 -3 2 C-5.64 1.67 -8.28 1.34 -11 1 C-11 3.97 -11 6.94 -11 10 C-11.66 10 -12.32 10 -13 10 C-12.96744792 7.98177083 -12.93489583 5.96354167 -12.90234375 3.9453125 C-12.87350758 1.91814596 -12.87350758 1.91814596 -14 0 C-9.75481738 -1.41506087 -4.03909918 -2.01954959 0 0 Z " fill="#3B116A" transform="translate(273,101)"/>
<path d="M0 0 C3.86801585 1.51957766 5.85270073 3.44584948 8 7 C8.74016479 10.33340404 9.1736333 13.58521181 9 17 C8.34 17.99 7.68 18.98 7 20 C6.82984375 19.14277344 6.6596875 18.28554687 6.484375 17.40234375 C5.10444935 10.8917371 3.73310461 5.53529304 0 0 Z " fill="#3C1567" transform="translate(566,115)"/>
<path d="M0 0 C0.66 0 1.32 0 2 0 C2.02687279 1.81242052 2.04633715 3.62495233 2.0625 5.4375 C2.07410156 6.44683594 2.08570313 7.45617187 2.09765625 8.49609375 C2 11 2 11 1 12 C-0.47112304 12.25910191 -1.95301569 12.45873776 -3.4375 12.625 C-4.64212891 12.76808594 -4.64212891 12.76808594 -5.87109375 12.9140625 C-8 13 -8 13 -10 12 C-9.67 11.01 -9.34 10.02 -9 9 C-6.36 9.33 -3.72 9.66 -1 10 C-0.67 6.7 -0.34 3.4 0 0 Z " fill="#3C126E" transform="translate(191,121)"/>
<path d="M0 0 C3.36946087 1.05897342 4.83917316 1.79531129 7.0625 4.625 C11.61845173 8.30853544 16.35532245 7.4051204 22 7 C17.72668651 9.84887566 14.01518572 9.61550007 9 9 C5.07307298 7.67430383 2.52947373 6.01290626 0.5625 2.25 C0.376875 1.5075 0.19125 0.765 0 0 Z " fill="#2F1256" transform="translate(305,140)"/>
<path d="M0 0 C0.99 0 1.98 0 3 0 C2.979375 1.010625 2.95875 2.02125 2.9375 3.0625 C2.99687734 6.80327257 3.39795085 10.31244898 4 14 C2.02 14.99 2.02 14.99 0 16 C-1.5625 14.8125 -1.5625 14.8125 -3 13 C-2.6875 10.3125 -2.6875 10.3125 -2 8 C-1.01 8.99 -0.02 9.98 1 11 C0.67 7.37 0.34 3.74 0 0 Z " fill="#380E6C" transform="translate(546,124)"/>
<path d="M0 0 C2.88684274 1.44342137 3.47222601 3.66699124 4.52734375 6.59375 C5.36150898 10.84040934 4.48443176 14.97082808 3 19 C2.34 19.33 1.68 19.66 1 20 C1.01740234 18.83984375 1.01740234 18.83984375 1.03515625 17.65625 C1.08709845 11.66063636 0.91184156 5.92697017 0 0 Z " fill="#3E1A69" transform="translate(440,118)"/>
<path d="M0 0 C2.50037734 2.17424117 3.43628586 3.73045798 4 7 C-0.43076923 9.09230769 -0.43076923 9.09230769 -3.3125 8.625 C-3.869375 8.41875 -4.42625 8.2125 -5 8 C-5 6.35 -5 4.7 -5 3 C-2.525 3.99 -2.525 3.99 0 5 C-0.2784375 4.0409375 -0.2784375 4.0409375 -0.5625 3.0625 C-0.706875 2.381875 -0.85125 1.70125 -1 1 C-0.67 0.67 -0.34 0.34 0 0 Z " fill="#2A0C5B" transform="translate(536,100)"/>
<path d="M0 0 C2 2 2 2 2.25 5.375 C2.12563766 10.99203251 1.02846324 16.49037552 0 22 C-0.33 22 -0.66 22 -1 22 C-1.02903577 18.89585298 -1.0468107 15.79174091 -1.0625 12.6875 C-1.07087891 11.80642578 -1.07925781 10.92535156 -1.08789062 10.01757812 C-1.09111328 9.17001953 -1.09433594 8.32246094 -1.09765625 7.44921875 C-1.10289307 6.66893311 -1.10812988 5.88864746 -1.11352539 5.0847168 C-1 3 -1 3 0 0 Z " fill="#46136E" transform="translate(448,118)"/>
<path d="M0 0 C0.33 0 0.66 0 1 0 C1 6.27 1 12.54 1 19 C-0.32 18.67 -1.64 18.34 -3 18 C-2.01 12.06 -1.02 6.12 0 0 Z " fill="#1F0B68" transform="translate(449,128)"/>
<path d="M0 0 C0.66 0.33 1.32 0.66 2 1 C2 4.63 2 8.26 2 12 C1.67 10.68 1.34 9.36 1 8 C0.34 8 -0.32 8 -1 8 C-0.67 6.35 -0.34 4.7 0 3 C-3.3 3 -6.6 3 -10 3 C-10.33 2.34 -10.66 1.68 -11 1 C-7.10835652 -0.29721449 -4.10570774 -0.13033993 0 0 Z " fill="#3D106B" transform="translate(191,100)"/>
<path d="M0 0 C0.33 1.32 0.66 2.64 1 4 C4.63 4 8.26 4 12 4 C11.67 6.64 11.34 9.28 11 12 C10.67 12 10.34 12 10 12 C10 10.02 10 8.04 10 6 C6.37 6 2.74 6 -1 6 C-1 1 -1 1 0 0 Z " fill="#381167" transform="translate(162,62)"/>
<path d="M0 0 C0.33 0 0.66 0 1 0 C1.02505615 0.59949463 1.0501123 1.19898926 1.07592773 1.81665039 C1.19285773 4.56543324 1.31513947 7.31395375 1.4375 10.0625 C1.47681641 11.00544922 1.51613281 11.94839844 1.55664062 12.91992188 C1.78725396 18.01115478 2.1699127 22.97064756 3 28 C2.01 28 1.02 28 0 28 C0 18.76 0 9.52 0 0 Z " fill="#36195F" transform="translate(482,120)"/>
<path d="M0 0 C0.66 0.99 1.32 1.98 2 3 C4.39191242 6.26894698 6.18605685 8.50166519 10 10 C10 10.66 10 11.32 10 12 C6.13393026 11.7302742 4.20822811 11.15506349 1.0625 8.8125 C-1 6 -1 6 -0.8125 2.6875 C-0.544375 1.800625 -0.27625 0.91375 0 0 Z " fill="#34105D" transform="translate(378,132)"/>
<path d="M0 0 C0.99 0.66 1.98 1.32 3 2 C1.25 8.75 1.25 8.75 -1 11 C-1.99 11 -2.98 11 -4 11 C-4 11.66 -4 12.32 -4 13 C-5.32 13 -6.64 13 -8 13 C-8 12.34 -8 11.68 -8 11 C-7.236875 10.855625 -6.47375 10.71125 -5.6875 10.5625 C-1.95212255 8.39076892 -1.62907285 5.9217248 -0.48046875 1.8984375 C-0.32191406 1.27195313 -0.16335938 0.64546875 0 0 Z " fill="#33105C" transform="translate(329,131)"/>
<path d="M0 0 C0.66 0 1.32 0 2 0 C1.67 0.99 1.34 1.98 1 3 C0.96045766 5.33299825 0.95598268 7.66708189 1 10 C1.99 9.67 2.98 9.34 4 9 C4.33 10.65 4.66 12.3 5 14 C4.01 14.66 3.02 15.32 2 16 C0.515625 14.8828125 0.515625 14.8828125 -1 13 C-1.328125 10.1171875 -1.328125 10.1171875 -1.25 6.875 C-1.23453125 5.79992187 -1.2190625 4.72484375 -1.203125 3.6171875 C-1 1 -1 1 0 0 Z " fill="#300260" transform="translate(616,97)"/>
<path d="M0 0 C1.32 0.33 2.64 0.66 4 1 C4 4.3 4 7.6 4 11 C3.67 11 3.34 11 3 11 C2.87625 10.195625 2.7525 9.39125 2.625 8.5625 C2.41875 7.716875 2.2125 6.87125 2 6 C1.34 5.67 0.68 5.34 0 5 C-0.33 6.65 -0.66 8.3 -1 10 C-1.33 10 -1.66 10 -2 10 C-2.1953125 3.9453125 -2.1953125 3.9453125 -2 2 C-1.34 1.34 -0.68 0.68 0 0 Z " fill="#350E68" transform="translate(618,98)"/>
<path d="M0 0 C0.33 0 0.66 0 1 0 C1.02689216 1.47906892 1.04634621 2.95827483 1.0625 4.4375 C1.07410156 5.26121094 1.08570313 6.08492188 1.09765625 6.93359375 C1 9 1 9 0 10 C-1.68608966 10.07205511 -3.37500659 10.08386068 -5.0625 10.0625 C-5.98160156 10.05347656 -6.90070313 10.04445313 -7.84765625 10.03515625 C-8.55792969 10.02355469 -9.26820313 10.01195313 -10 10 C-10.33 9.34 -10.66 8.68 -11 8 C-6.545 7.505 -6.545 7.505 -2 7 C-1.34 4.69 -0.68 2.38 0 0 Z " fill="#3F166D" transform="translate(212,83)"/>
<path d="M0 0 C1.35158203 0.15275391 1.35158203 0.15275391 2.73046875 0.30859375 C3.41753906 0.39238281 4.10460937 0.47617188 4.8125 0.5625 C4.8125 1.2225 4.8125 1.8825 4.8125 2.5625 C2.8325 2.5625 0.8525 2.5625 -1.1875 2.5625 C-1.1875 3.5525 -1.1875 4.5425 -1.1875 5.5625 C-2.1775 5.5625 -3.1675 5.5625 -4.1875 5.5625 C-4.1875 4.2425 -4.1875 2.9225 -4.1875 1.5625 C-5.5075 1.2325 -6.8275 0.9025 -8.1875 0.5625 C-4.98734144 -0.50421952 -3.30205706 -0.38595472 0 0 Z " fill="#421C71" transform="translate(612.1875,109.4375)"/>
<path d="M0 0 C5.23607896 -0.65450987 8.09046826 0.90309701 12.36328125 3.61328125 C14 5 14 5 15 8 C12.6830482 6.8415241 10.36960487 5.6780961 8.0625 4.5 C5.40761073 3.19964607 2.75944315 2.0550812 0 1 C0 0.67 0 0.34 0 0 Z " fill="#361360" transform="translate(521,93)"/>
<path d="M0 0 C3 3 3 3 3.2487793 5.8190918 C3.19117432 6.93453369 3.13356934 8.04997559 3.07421875 9.19921875 C3.01943359 10.40771484 2.96464844 11.61621094 2.90820312 12.86132812 C2.83537109 14.12396484 2.76253906 15.38660156 2.6875 16.6875 C2.62626953 17.96173828 2.56503906 19.23597656 2.50195312 20.54882812 C2.34851627 23.70018516 2.1806358 26.85010392 2 30 C1.67 30 1.34 30 1 30 C0.67 20.1 0.34 10.2 0 0 Z " fill="#3E1473" transform="translate(487,117)"/>
<path d="M0 0 C0.33 0 0.66 0 1 0 C1 3.3 1 6.6 1 10 C-1.52475462 11.26237731 -3.31200466 11.09856404 -6.125 11.0625 C-7.03507813 11.05347656 -7.94515625 11.04445312 -8.8828125 11.03515625 C-9.58148438 11.02355469 -10.28015625 11.01195312 -11 11 C-10.67 10.01 -10.34 9.02 -10 8 C-9.443125 8.185625 -8.88625 8.37125 -8.3125 8.5625 C-5.600867 9.07551165 -3.65628961 8.6640724 -1 8 C-0.67 5.36 -0.34 2.72 0 0 Z " fill="#41146E" transform="translate(232,122)"/>
<path d="M0 0 C0.33 0 0.66 0 1 0 C1.12117187 0.66386719 1.24234375 1.32773438 1.3671875 2.01171875 C2.22547708 6.53424459 3.03971311 10.79938524 5 15 C1.83884224 13.63016497 1.0072908 13.0109362 -1 10 C-0.9765625 7.51953125 -0.9765625 7.51953125 -0.625 4.8125 C-0.51414063 3.91144531 -0.40328125 3.01039063 -0.2890625 2.08203125 C-0.19367188 1.39496094 -0.09828125 0.70789063 0 0 Z " fill="#32105E" transform="translate(192,166)"/>
<path d="M0 0 C0 0.66 0 1.32 0 2 C-5.72455159 5.81636773 -11.29749495 5.29282789 -18 5 C-18 4.67 -18 4.34 -18 4 C-15.03 4 -12.06 4 -9 4 C-8.67 3.01 -8.34 2.02 -8 1 C-2.25 0 -2.25 0 0 0 Z " fill="#2B0F58" transform="translate(402,144)"/>
<path d="M0 0 C0.99 0 1.98 0 3 0 C5.60250805 3.37362154 6.36265043 5.76907828 6 10 C5.34 9.34 4.68 8.68 4 8 C3.01 8.495 3.01 8.495 2 9 C2 7.68 2 6.36 2 5 C1.01 5 0.02 5 -1 5 C-1.33 4.01 -1.66 3.02 -2 2 C-1.34 2 -0.68 2 0 2 C0 1.34 0 0.68 0 0 Z " fill="#26044A" transform="translate(238,164)"/>
<path d="M0 0 C0.33 0 0.66 0 1 0 C1.02505615 0.62044189 1.0501123 1.24088379 1.07592773 1.88012695 C1.19196721 4.69112397 1.31465759 7.50179241 1.4375 10.3125 C1.47681641 11.28896484 1.51613281 12.26542969 1.55664062 13.27148438 C1.59853516 14.20927734 1.64042969 15.14707031 1.68359375 16.11328125 C1.72025146 16.97735596 1.75690918 17.84143066 1.79467773 18.73168945 C1.92747354 21.1647826 1.92747354 21.1647826 3 24 C2.01 24 1.02 24 0 24 C0 16.08 0 8.16 0 0 Z " fill="#431575" transform="translate(376,93)"/>
<path d="M0 0 C0.66 0.33 1.32 0.66 2 1 C2 3.64 2 6.28 2 9 C5.3 9 8.6 9 12 9 C11.34 9.66 10.68 10.32 10 11 C7.8359375 10.9765625 7.8359375 10.9765625 5.375 10.625 C4.14910156 10.45871094 4.14910156 10.45871094 2.8984375 10.2890625 C1.95871094 10.14597656 1.95871094 10.14597656 1 10 C-1.125 3.375 -1.125 3.375 0 0 Z " fill="#3E146B" transform="translate(260,83)"/>
<path d="M0 0 C-0.8353125 0.37125 -0.8353125 0.37125 -1.6875 0.75 C-5.85877143 3.00474131 -8.50037501 4.76283335 -10.3125 9.25 C-10.539375 10.1575 -10.76625 11.065 -11 12 C-11.33 12 -11.66 12 -12 12 C-12.32215416 7.3824571 -11.92900057 4.66125071 -9 1 C-6.07267287 -0.26850842 -3.159692 -0.08776922 0 0 Z " fill="#2E0E53" transform="translate(431,115)"/>
<path d="M0 0 C-0.99 0.33 -1.98 0.66 -3 1 C-3.33 1.99 -3.66 2.98 -4 4 C-6.6352539 5.42446157 -8.19404974 6.16845087 -11.16796875 5.546875 C-12.07482422 5.27617188 -12.07482422 5.27617188 -13 5 C-4.738041 -0.74031891 -4.738041 -0.74031891 0 0 Z " fill="#320F5E" transform="translate(607,109)"/>
<path d="M0 0 C0.66 0 1.32 0 2 0 C1.34 2.97 0.68 5.94 0 9 C-2.31 9 -4.62 9 -7 9 C-6.401875 8.814375 -5.80375 8.62875 -5.1875 8.4375 C-1.90018201 6.27726247 -1.35145313 3.64892345 0 0 Z " fill="#240658" transform="translate(231,101)"/>
<path d="M0 0 C-0.33 0.99 -0.66 1.98 -1 3 C-2.77734375 3.6953125 -2.77734375 3.6953125 -4.9375 4.125 C-7.18773149 4.59056513 -8.93733519 4.96866759 -11 6 C-8.60159776 0.46522561 -5.82500047 -0.25888891 0 0 Z " fill="#2F0163" transform="translate(366,111)"/>
<path d="M0 0 C1.32 0 2.64 0 4 0 C4 0.99 4 1.98 4 3 C4.66 3 5.32 3 6 3 C6 3.66 6 4.32 6 5 C3.69 5 1.38 5 -1 5 C-0.67 3.35 -0.34 1.7 0 0 Z " fill="#290954" transform="translate(625,112)"/>
<path d="M0 0 C4.75 0.875 4.75 0.875 7 2 C6.67 3.65 6.34 5.3 6 7 C5.34 7 4.68 7 4 7 C3.87625 6.360625 3.7525 5.72125 3.625 5.0625 C3.315625 4.0415625 3.315625 4.0415625 3 3 C2.34 2.67 1.68 2.34 1 2 C0.67 2.66 0.34 3.32 0 4 C0 2.68 0 1.36 0 0 Z " fill="#3C1F67" transform="translate(532,133)"/>
<path d="M0 0 C1.65 0.33 3.3 0.66 5 1 C5.125 8.75 5.125 8.75 4 11 C1.69 10.34 -0.62 9.68 -3 9 C-3 8.67 -3 8.34 -3 8 C-1.02 8 0.96 8 3 8 C3 5.69 3 3.38 3 1 C2.01 0.67 1.02 0.34 0 0 Z " fill="#2C0B53" transform="translate(207,122)"/>
<path d="M0 0 C0.33 0.66 0.66 1.32 1 2 C1.66 2 2.32 2 3 2 C2.25 9.625 2.25 9.625 0 13 C0 8.71 0 4.42 0 0 Z " fill="#411770" transform="translate(406,122)"/>
<path d="M0 0 C0.33 0 0.66 0 1 0 C1.09765625 6.15234375 1.09765625 6.15234375 1 8 C0 9 0 9 -2.50390625 9.09765625 C-4.01791016 9.08025391 -4.01791016 9.08025391 -5.5625 9.0625 C-6.57441406 9.05347656 -7.58632812 9.04445313 -8.62890625 9.03515625 C-9.41136719 9.02355469 -10.19382813 9.01195313 -11 9 C-11 8.67 -11 8.34 -11 8 C-6.545 7.505 -6.545 7.505 -2 7 C-1.34 4.69 -0.68 2.38 0 0 Z " fill="#3B0F69" transform="translate(232,104)"/>
<path d="M0 0 C0.598125 0.78375 1.19625 1.5675 1.8125 2.375 C3.91085249 5.14574323 3.91085249 5.14574323 7 7 C7 7.66 7 8.32 7 9 C4.625 8.6875 4.625 8.6875 2 8 C-0.1519437 4.77208445 -0.20086443 3.71599191 0 0 Z " fill="#36125A" transform="translate(550,134)"/>
<path d="M0 0 C3.96 0.33 7.92 0.66 12 1 C12 1.66 12 2.32 12 3 C8.37 3 4.74 3 1 3 C0.67 2.01 0.34 1.02 0 0 Z " fill="#3F1371" transform="translate(240,130)"/>
<path d="M0 0 C0.33 0 0.66 0 1 0 C1.16777183 1.79156352 1.33418294 3.5832545 1.5 5.375 C1.5928125 6.37273437 1.685625 7.37046875 1.78125 8.3984375 C2 11 2 11 2 13 C1.34 13 0.68 13 0 13 C-0.98248196 8.94726192 -1.16017882 5.16464926 -1 1 C-0.67 0.67 -0.34 0.34 0 0 Z " fill="#301556" transform="translate(412,124)"/>
<path d="M0 0 C6.625 -0.25 6.625 -0.25 10 2 C7.69 2 5.38 2 3 2 C3 3.98 3 5.96 3 8 C2.67 8 2.34 8 2 8 C1.34 5.36 0.68 2.72 0 0 Z " fill="#34105C" transform="translate(260,121)"/>
<path d="M0 0 C1.65 0 3.3 0 5 0 C5.33 0.66 5.66 1.32 6 2 C6.99 2.66 7.98 3.32 9 4 C6.36 4 3.72 4 1 4 C0.67 2.68 0.34 1.36 0 0 Z " fill="#2E0E59" transform="translate(441,144)"/>
<path d="M0 0 C0 1.32 0 2.64 0 4 C-2.35438733 5.42944945 -3.48032433 6.08661261 -6.25 5.625 C-6.8275 5.41875 -7.405 5.2125 -8 5 C-2.25 0 -2.25 0 0 0 Z " fill="#390F67" transform="translate(332,141)"/>
<path d="M0 0 C0.99 0.33 1.98 0.66 3 1 C2.34 1 1.68 1 1 1 C0.34 2.65 -0.32 4.3 -1 6 C-2.65 5.67 -4.3 5.34 -6 5 C-4.06745228 2.9754262 -2.36841312 1.57894208 0 0 Z " fill="#381167" transform="translate(572,142)"/>
<path d="M0 0 C2 3 2 3 1.5625 5.5625 C1.376875 6.366875 1.19125 7.17125 1 8 C1.33 8.66 1.66 9.32 2 10 C1.34 10.66 0.68 11.32 0 12 C-1 11 -1 11 -1.1328125 9.00390625 C-1.13023437 8.19824219 -1.12765625 7.39257812 -1.125 6.5625 C-1.12757813 5.75941406 -1.13015625 4.95632812 -1.1328125 4.12890625 C-1 2 -1 2 0 0 Z " fill="#390C67" transform="translate(241,99)"/>
<path d="M0 0 C0.99 0 1.98 0 3 0 C2.67 1.65 2.34 3.3 2 5 C0.68 5.33 -0.64 5.66 -2 6 C-2 5.01 -2 4.02 -2 3 C-1.34 3 -0.68 3 0 3 C0 2.01 0 1.02 0 0 Z " fill="#2E014E" transform="translate(429,141)"/>
<path d="M0 0 C0.66 0.99 1.32 1.98 2 3 C-0.97 3 -3.94 3 -7 3 C-7 2.34 -7 1.68 -7 1 C-4.46578263 -0.26710868 -2.80561762 -0.28056176 0 0 Z " fill="#360E5E" transform="translate(188,120)"/>
<path d="M0 0 C0.33 0 0.66 0 1 0 C0.125 7.75 0.125 7.75 -1 10 C-1.66 10 -2.32 10 -3 10 C-3 8.68 -3 7.36 -3 6 C-2.34 6 -1.68 6 -1 6 C-0.67 4.02 -0.34 2.04 0 0 Z " fill="#2C0B4F" transform="translate(262,169)"/>
<path d="M0 0 C0.33 0 0.66 0 1 0 C1.22245393 1.60226955 1.42746669 3.20696767 1.625 4.8125 C1.74101562 5.70582031 1.85703125 6.59914062 1.9765625 7.51953125 C2 10 2 10 0 13 C-0.66 12.34 -1.32 11.68 -2 11 C-1.7578125 8.3984375 -1.7578125 8.3984375 -1.125 5.375 C-0.92132813 4.37210938 -0.71765625 3.36921875 -0.5078125 2.3359375 C-0.34023438 1.56507813 -0.17265625 0.79421875 0 0 Z " fill="#350C6D" transform="translate(306,128)"/>
<path d="M0 0 C2.3431213 0.25561323 4.67843403 0.59270772 7 1 C7.33 1.66 7.66 2.32 8 3 C2.25 4.125 2.25 4.125 0 3 C0 2.01 0 1.02 0 0 Z " fill="#3D116D" transform="translate(201,130)"/>
<path d="M0 0 C1.98 0 3.96 0 6 0 C6 1.65 6 3.3 6 5 C2.83884224 3.63016497 2.0072908 3.0109362 0 0 Z " fill="#441970" transform="translate(438,112)"/>
<path d="M0 0 C0.66 0 1.32 0 2 0 C2 2.64 2 5.28 2 8 C1.01 7.67 0.02 7.34 -1 7 C-0.67 4.69 -0.34 2.38 0 0 Z " fill="#18073D" transform="translate(180,159)"/>
<path d="M0 0 C2.64 0.33 5.28 0.66 8 1 C8 1.66 8 2.32 8 3 C5.36 3 2.72 3 0 3 C0 2.01 0 1.02 0 0 Z " fill="#2C0D5B" transform="translate(330,145)"/>
<path d="M0 0 C1.67542976 0.28604898 3.34385343 0.61781233 5 1 C5 3.31 5 5.62 5 8 C3 5 3 5 3 2 C1.68 1.67 0.36 1.34 -1 1 C-0.67 0.67 -0.34 0.34 0 0 Z " fill="#390F66" transform="translate(248,120)"/>
<path d="M0 0 C2.64 0 5.28 0 8 0 C8 0.99 8 1.98 8 3 C5.6568787 2.74438677 3.32156597 2.40729228 1 2 C0.67 1.34 0.34 0.68 0 0 Z " fill="#44276C" transform="translate(559,109)"/>
<path d="M0 0 C0.66 0 1.32 0 2 0 C1.34 4.29 0.68 8.58 0 13 C-0.33 13 -0.66 13 -1 13 C-1.02686553 11.02090602 -1.04633375 9.04171029 -1.0625 7.0625 C-1.07410156 5.96035156 -1.08570313 4.85820313 -1.09765625 3.72265625 C-1 1 -1 1 0 0 Z " fill="#1F0B4C" transform="translate(616,97)"/>
<path d="M0 0 C-0.33 0.99 -0.66 1.98 -1 3 C-3.97 3 -6.94 3 -10 3 C-10 2.34 -10 1.68 -10 1 C-6.78548731 -0.60725635 -3.56387464 -0.05748185 0 0 Z " fill="#3A126B" transform="translate(231,100)"/>
<path d="M0 0 C0.33 0 0.66 0 1 0 C1 1.98 1 3.96 1 6 C-0.98 6 -2.96 6 -5 6 C-4.360625 5.7525 -3.72125 5.505 -3.0625 5.25 C-0.81258459 4.18437567 -0.81258459 4.18437567 -0.25 1.875 C-0.1675 1.25625 -0.085 0.6375 0 0 Z " fill="#05003C" transform="translate(249,104)"/>
<path d="M0 0 C0.33 0 0.66 0 1 0 C1 1.98 1 3.96 1 6 C-0.98 6 -2.96 6 -5 6 C-4.360625 5.7525 -3.72125 5.505 -3.0625 5.25 C-0.81258459 4.18437567 -0.81258459 4.18437567 -0.25 1.875 C-0.1675 1.25625 -0.085 0.6375 0 0 Z " fill="#000058" transform="translate(249,84)"/>
<path d="M0 0 C0.99 0.33 1.98 0.66 3 1 C2.67 1.99 2.34 2.98 2 4 C1.34 4 0.68 4 0 4 C0 2.68 0 1.36 0 0 Z " fill="#000038" transform="translate(379,107)"/>
<path d="M0 0 C2.64 0 5.28 0 8 0 C8 0.33 8 0.66 8 1 C5.36 1 2.72 1 0 1 C0 0.67 0 0.34 0 0 Z " fill="#000000" transform="translate(515,91)"/>
<path d="M0 0 C0.66 0 1.32 0 2 0 C1.67 1.32 1.34 2.64 1 4 C0.67 2.68 0.34 1.36 0 0 Z " fill="#00005B" transform="translate(409,121)"/>
<path d="M0 0 C2.31 0 4.62 0 7 0 C7 0.33 7 0.66 7 1 C4.69 1 2.38 1 0 1 C0 0.67 0 0.34 0 0 Z " fill="#000036" transform="translate(386,107)"/>
<path d="M0 0 C2.31 0 4.62 0 7 0 C7 0.33 7 0.66 7 1 C4.69 1 2.38 1 0 1 C0 0.67 0 0.34 0 0 Z " fill="#000000" transform="translate(361,107)"/>
<path d="M0 0 C1.98 0 3.96 0 6 0 C6 0.33 6 0.66 6 1 C4.02 1 2.04 1 0 1 C0 0.67 0 0.34 0 0 Z " fill="#000000" transform="translate(589,108)"/>
<path d="M0 0 C1.98 0 3.96 0 6 0 C6 0.33 6 0.66 6 1 C4.02 1 2.04 1 0 1 C0 0.67 0 0.34 0 0 Z " fill="#000000" transform="translate(573,108)"/>
<path d="M0 0 C1.98 0 3.96 0 6 0 C6 0.33 6 0.66 6 1 C4.02 1 2.04 1 0 1 C0 0.67 0 0.34 0 0 Z " fill="#000000" transform="translate(559,107)"/>
<path d="M0 0 C0.33 0 0.66 0 1 0 C1 1.65 1 3.3 1 5 C0.67 5 0.34 5 0 5 C0 3.35 0 1.7 0 0 Z " fill="#000000" transform="translate(249,124)"/>
<path d="M0 0 C1.65 0 3.3 0 5 0 C5 0.33 5 0.66 5 1 C3.35 1 1.7 1 0 1 C0 0.67 0 0.34 0 0 Z " fill="#000000" transform="translate(347,108)"/>
<path d="M0 0 C1.65 0 3.3 0 5 0 C5 0.33 5 0.66 5 1 C3.35 1 1.7 1 0 1 C0 0.67 0 0.34 0 0 Z " fill="#000000" transform="translate(305,108)"/>
<path d="M0 0 C1.65 0 3.3 0 5 0 C5 0.33 5 0.66 5 1 C3.35 1 1.7 1 0 1 C0 0.67 0 0.34 0 0 Z " fill="#00004C" transform="translate(204,89)"/>
<path d="M0 0 C4 1 4 1 4 1 Z " fill="#000000" transform="translate(517,100)"/>
<path d="M0 0 C3 1 3 1 3 1 Z " fill="#000000" transform="translate(575,149)"/>
<path d="" fill="#00002A" transform="translate(0,0)"/>
<path d="" fill="#000000" transform="translate(0,0)"/>
<path d="M0 0 C3 1 3 1 3 1 Z " fill="#000000" transform="translate(610,108)"/>
<path d="M0 0 C3 1 3 1 3 1 Z " fill="#000000" transform="translate(474,107)"/>
<path d="" fill="#000000" transform="translate(0,0)"/>
<path d="M0 0 C2 1 2 1 2 1 Z " fill="#000000" transform="translate(439,109)"/>
<path d="M0 0 C2 1 2 1 2 1 Z " fill="#000000" transform="translate(461,108)"/>
<path d="" fill="#FFFFFF" transform="translate(0,0)"/>
<path d="" fill="#FFFFFF" transform="translate(0,0)"/>
<path d="" fill="#FFFFFF" transform="translate(0,0)"/>
<path d="" fill="#FFFFFF" transform="translate(0,0)"/>
<path d="" fill="#FFFFFF" transform="translate(0,0)"/>
<path d="" fill="#FFFFFF" transform="translate(0,0)"/>
<path d="" fill="#FFFFFF" transform="translate(0,0)"/>
<path d="" fill="#FFFFFF" transform="translate(0,0)"/>
<path d="" fill="#FFFFFF" transform="translate(0,0)"/>
<path d="" fill="#FFFFFF" transform="translate(0,0)"/>
<path d="" fill="#FFFFFF" transform="translate(0,0)"/>
<path d="" fill="#FFFFFF" transform="translate(0,0)"/>
<path d="" fill="#FFFFFF" transform="translate(0,0)"/>
<path d="" fill="#FFFFFF" transform="translate(0,0)"/>
<path d="" fill="#FFFFFF" transform="translate(0,0)"/>
<path d="" fill="#FFFFFF" transform="translate(0,0)"/>
<path d="" fill="#FFFFFF" transform="translate(0,0)"/>
<path d="" fill="#FFFFFF" transform="translate(0,0)"/>
<path d="" fill="#FFFFFF" transform="translate(0,0)"/>
<path d="" fill="#FFFFFF" transform="translate(0,0)"/>
<path d="" fill="#FFFFFF" transform="translate(0,0)"/>
<path d="" fill="#FFFFFF" transform="translate(0,0)"/>
<path d="" fill="#FFFFFF" transform="translate(0,0)"/>
<path d="" fill="#FFFFFF" transform="translate(0,0)"/>
<path d="" fill="#000000" transform="translate(0,0)"/>
<path d="" fill="#FFFFFF" transform="translate(0,0)"/>
<path d="" fill="#FFFFFF" transform="translate(0,0)"/>
<path d="" fill="#FFFFFF" transform="translate(0,0)"/>
<path d="" fill="#000000" transform="translate(0,0)"/>
<path d="" fill="#000000" transform="translate(0,0)"/>
<path d="" fill="#FFFFFF" transform="translate(0,0)"/>
<path d="" fill="#FFFFFF" transform="translate(0,0)"/>
<path d="" fill="#FFFFFF" transform="translate(0,0)"/>
<path d="" fill="#FFFFFF" transform="translate(0,0)"/>
<path d="" fill="#000000" transform="translate(0,0)"/>
<path d="" fill="#000000" transform="translate(0,0)"/>
<path d="" fill="#FFFFFF" transform="translate(0,0)"/>
<path d="" fill="#000000" transform="translate(0,0)"/>
<path d="" fill="#000000" transform="translate(0,0)"/>
<path d="" fill="#FFFFFF" transform="translate(0,0)"/>
<path d="" fill="#FFFFFF" transform="translate(0,0)"/>
<path d="" fill="#FFFFFF" transform="translate(0,0)"/>
<path d="" fill="#FFFFFF" transform="translate(0,0)"/>
<path d="" fill="#FFFFFF" transform="translate(0,0)"/>
<path d="" fill="#000000" transform="translate(0,0)"/>
<path d="" fill="#FFFFFF" transform="translate(0,0)"/>
<path d="" fill="#FFFFFF" transform="translate(0,0)"/>
<path d="" fill="#FFFFFF" transform="translate(0,0)"/>
<path d="" fill="#FFFFFF" transform="translate(0,0)"/>
<path d="" fill="#FFFFFF" transform="translate(0,0)"/>
<path d="" fill="#FFFFFF" transform="translate(0,0)"/>
<path d="" fill="#FFFFFF" transform="translate(0,0)"/>
<path d="" fill="#FFFFFF" transform="translate(0,0)"/>
<path d="" fill="#FFFFFF" transform="translate(0,0)"/>
<path d="" fill="#FFFFFF" transform="translate(0,0)"/>
<path d="" fill="#FFFFFF" transform="translate(0,0)"/>
<path d="" fill="#FFFFFF" transform="translate(0,0)"/>
<path d="" fill="#FFFFFF" transform="translate(0,0)"/>
<path d="" fill="#FFFFFF" transform="translate(0,0)"/>
<path d="" fill="#FFFFFF" transform="translate(0,0)"/>
<path d="" fill="#FFFFFF" transform="translate(0,0)"/>
<path d="" fill="#FFFFFF" transform="translate(0,0)"/>
<path d="" fill="#FFFFFF" transform="translate(0,0)"/>
<path d="" fill="#FFFFFF" transform="translate(0,0)"/>
<path d="" fill="#FFFFFF" transform="translate(0,0)"/>
<path d="" fill="#FFFFFF" transform="translate(0,0)"/>
<path d="" fill="#FFFFFF" transform="translate(0,0)"/>
<path d="" fill="#FFFFFF" transform="translate(0,0)"/>
<path d="" fill="#FFFFFF" transform="translate(0,0)"/>
<path d="" fill="#FFFFFF" transform="translate(0,0)"/>
<path d="" fill="#FFFFFF" transform="translate(0,0)"/>
<path d="" fill="#FFFFFF" transform="translate(0,0)"/>
<path d="" fill="#FFFFFF" transform="translate(0,0)"/>
</svg>
